<svg width="7" height="13" viewBox="0 0 7 13" fill="none" xmlns="http://www.w3.org/2000/svg">
<path d="M0.683594 0.796875C0.738281 0.742188 0.792969 0.714844 0.902344 0.714844C0.984375 0.714844 1.06641 0.742188 1.14844 0.796875L6.86328 6.53906C6.91797 6.59375 6.97266 6.67578 6.97266 6.75781C6.97266 6.86719 6.91797 6.92188 6.86328 6.97656L1.14844 12.7188C1.06641 12.7734 0.984375 12.8008 0.902344 12.8008C0.792969 12.8008 0.738281 12.7734 0.683594 12.7188L0.136719 12.1719C0.0546875 12.1172 0.0273438 12.0625 0.0273438 11.9531C0.0273438 11.8711 0.0546875 11.7891 0.136719 11.707L5.08594 6.75781L0.136719 1.80859C0.0546875 1.75391 0.0273438 1.67188 0.0273438 1.5625C0.0273438 1.48047 0.0546875 1.39844 0.136719 1.34375L0.683594 0.796875Z" fill="#A2C0D4"/>
</svg>
