<svg width="7" height="13" viewBox="0 0 7 13" fill="none" xmlns="http://www.w3.org/2000/svg">
<path d="M6.31641 12.7188C6.26172 12.7734 6.17969 12.8008 6.09766 12.8008C5.98828 12.8008 5.90625 12.7734 5.85156 12.7188L0.136719 6.97656C0.0546875 6.92188 0.0273438 6.86719 0.0273438 6.75781C0.0273438 6.67578 0.0546875 6.59375 0.136719 6.53906L5.85156 0.796875C5.90625 0.742188 5.98828 0.714844 6.09766 0.714844C6.17969 0.714844 6.26172 0.742188 6.31641 0.796875L6.86328 1.34375C6.91797 1.39844 6.97266 1.48047 6.97266 1.5625C6.97266 1.67188 6.91797 1.75391 6.86328 1.80859L1.91406 6.75781L6.86328 11.707C6.91797 11.7891 6.97266 11.8711 6.97266 11.9531C6.97266 12.0625 6.91797 12.1172 6.86328 12.1719L6.31641 12.7188Z" fill="#A2C0D4"/>
</svg>
