<svg width="20" height="18" viewBox="0 0 20 18" fill="none" xmlns="http://www.w3.org/2000/svg">
<path opacity="0.3" d="M9.95463 13.7807L11.0858 15.417C10.7249 15.4514 10.3626 15.4687 10 15.4688C5.83995 15.4688 2.18859 13.2206 0.23078 9.85674C0.0796862 9.59715 0 9.30132 0 9C0 8.69868 0.0796862 8.40285 0.23078 8.14326C1.06491 6.71007 2.20693 5.47929 3.56495 4.53843L5.54679 7.40504C5.37279 7.90384 5.27779 8.44057 5.27779 9.00002C5.27779 11.6275 7.36581 13.756 9.95463 13.7807ZM19.7692 9.85674C18.6697 11.7459 17.035 13.2831 15.0757 14.268L15.0761 14.2685L16.516 16.3498C16.7799 16.7316 16.6882 17.2575 16.3111 17.5247L15.8559 17.8474C15.4788 18.1146 14.9594 18.0218 14.6955 17.64L3.48404 1.65023C3.22015 1.26843 3.31182 0.742496 3.6889 0.475307L4.14411 0.152572C4.5212 -0.114616 5.04064 -0.0218033 5.30453 0.359995L7.07668 2.91294C8.00974 2.664 8.98977 2.53125 10 2.53125C14.1601 2.53125 17.8114 4.77946 19.7692 8.14329C19.9203 8.40289 20 8.69871 20 9.00002C20 9.30133 19.9203 9.59715 19.7692 9.85674ZM14.7222 9.00002C14.7222 6.35717 12.6098 4.21875 10 4.21875C9.37713 4.21875 8.78279 4.34085 8.23859 4.5623L8.9087 5.51356C9.80692 5.2263 10.8199 5.29689 11.7004 5.77407H11.6993C10.8781 5.77407 10.2125 6.44802 10.2125 7.27947C10.2125 8.11007 10.8773 8.78486 11.6993 8.78486C12.5205 8.78486 13.1861 8.11091 13.1861 7.27947V7.27841C13.8272 8.49095 13.7525 10.0176 12.8997 11.179V11.1794L13.5703 12.1307C14.2881 11.2922 14.7222 10.1979 14.7222 9.00002ZM9.09772 12.5412L6.40571 8.6474C6.23161 10.4891 7.42356 12.1052 9.09772 12.5412Z" fill="black"/>
</svg>
