<?xml version="1.0" encoding="utf-8"?><svg xmlns="http://www.w3.org/2000/svg" xmlns:xlink="http://www.w3.org/1999/xlink"><symbol viewBox="0 0 28 30" id="alert" xmlns="http://www.w3.org/2000/svg"><path d="M25.49 18.88c-.335-.295-.652-.572-.819-.871a1.208 1.208 0 00-.03-.053l-.005-.009c-.589-.941-.802-3.213-.93-4.57a87.364 87.364 0 00-.061-.626c-.285-1.988-.99-4.854-2.733-7.214-1.229-1.663-2.76-2.77-4.558-3.298A2.448 2.448 0 0013.918 0a2.448 2.448 0 00-2.436 2.24c-1.797.526-3.329 1.634-4.557 3.297-1.744 2.36-2.449 5.226-2.734 7.22a85.213 85.213 0 00-.06.619c-.128 1.358-.342 3.63-.934 4.577l-.029.05c-.17.304-.486.582-.822.876-.801.703-2.294 2.004-1.027 4.356.222.412.652.662 1.12.662h22.958c.469 0 .898-.25 1.12-.662 1.267-2.352-.225-3.653-1.027-4.356zm-8.672 7.11h-5.685c-.312 0-.496.129-.596.241a.794.794 0 00-.177.64A3.588 3.588 0 0013.918 30a3.582 3.582 0 003.56-3.17c.014-.119.024-.412-.173-.634a.635.635 0 00-.486-.206z"/></symbol><symbol viewBox="0 0 8 25" id="arrow-bottom" xmlns="http://www.w3.org/2000/svg"><path d="M3.646 24.354a.5.5 0 00.708 0l3.182-3.182a.5.5 0 10-.708-.707L4 23.293l-2.828-2.828a.5.5 0 10-.708.707l3.182 3.182zM3.5 0v24h1V0h-1z"/></symbol><symbol viewBox="0 0 27 16" id="arrow-left" xmlns="http://www.w3.org/2000/svg"><path d="M.293 7.293a1 1 0 000 1.414l6.364 6.364a1 1 0 001.414-1.414L2.414 8l5.657-5.657A1 1 0 006.657.93L.293 7.293zM27 7H1v2h26V7z"/></symbol><symbol viewBox="0 0 26 8" id="arrow-long-left" xmlns="http://www.w3.org/2000/svg"><path d="M.646 3.646a.5.5 0 000 .708l3.182 3.182a.5.5 0 10.708-.708L1.707 4l2.829-2.828a.5.5 0 10-.708-.708L.646 3.646zM26 3.5H1v1h25v-1z"/></symbol><symbol viewBox="0 0 27 16" id="arrow-right" xmlns="http://www.w3.org/2000/svg"><path d="M26.707 8.707a1 1 0 000-1.414L20.343.929a1 1 0 10-1.414 1.414L24.586 8l-5.657 5.657a1 1 0 001.414 1.414l6.364-6.364zM0 9h26V7H0v2z"/></symbol><symbol viewBox="0 0 15 18" id="book" xmlns="http://www.w3.org/2000/svg"><path d="M15 12.656V.844C15 .376 14.642 0 14.196 0H3.214C1.44 0 0 1.512 0 3.375v11.25C0 16.488 1.44 18 3.214 18h10.982c.446 0 .804-.376.804-.844v-.562a.867.867 0 00-.298-.658c-.14-.541-.14-2.084 0-2.626a.854.854 0 00.298-.654zM4.286 4.711c0-.116.09-.211.2-.211h7.099c.11 0 .2.095.2.21v.704c0 .116-.09.211-.2.211H4.487a.207.207 0 01-.201-.21V4.71zm0 2.25c0-.116.09-.211.2-.211h7.099c.11 0 .2.095.2.21v.704c0 .116-.09.211-.2.211H4.487a.207.207 0 01-.201-.21V6.96zm8.484 8.789H3.214c-.592 0-1.071-.503-1.071-1.125 0-.619.482-1.125 1.071-1.125h9.556a13.29 13.29 0 000 2.25z"/></symbol><symbol viewBox="0 0 22 22" id="business-card-pieces_2" xmlns="http://www.w3.org/2000/svg"><path d="M12.582 5.54L7.22.668 5.959 2.056 12.39 5.54h.192zM.795 8.624l.107-.197.002-.808-.55.605.441.4zm20.303 4.948l-.002.808.55-.604-.441-.401-.107.197zm-11.68 2.887l5.362 4.872 1.261-1.388-6.431-3.484h-.192zM21.1 12.251v.563l.007-.013.893-1.65-.55-.297-.35 1.397zM0 10.846l.55.298.35-1.398v-.562l-.007.013L0 10.847zM5.71 2.33l-.162-.087-.163-.088-.524-.284-.94 1.735.119.03.198.049.197.049 7.162 1.785L5.71 2.331zm12.052 15.985l-.197-.05-7.162-1.785 5.887 3.189.162.087.163.088.524.284.94-1.735-.119-.03-.198-.048zM2.479 5.516h.407l7.292.018-6.017-1.5-.197-.05-.198-.048-.02-.005-.18-.045-.18-.045-.608-.152-.455 1.826h.156zM19.52 16.483h-.406l-7.292-.018 6.017 1.5.198.049.198.049.02.005.18.045.18.045.607.151.455-1.826h-.155zm1.585-6.02v.289l.018-.075.045-.18.045-.18.477-1.914-.58-.145-.004 2v.205zM.832 11.502l-.045.18-.477 1.914.58.144.004-2v-.204l.001-.204v-.086l-.018.076-.045.18zM13.245 5.9h-.115l-.074-.001h-.379l-.296-.002H12.3l-.667-.002-8.94-.021h-.459l-.184-.001h-.185l-.597-.002-.002.817v.268l-.002.267-.001.539-.001.378v.379l-.002.523v.245l-.001.242-.001.262-.004 1.734v.204l-.001.204-.005 1.896v.369l-.005 1.882 7.245.017.267.001h.268l.3.001.296.001H9.7l.667.002 8.94.022h.687l.141.001.597.001.002-.817v-.267l.002-.268.001-.538.001-.379v-.378l.002-.524v-.003l.001-.242v-.242l.001-.261.005-1.735v-.407l.005-1.896v-.37l.005-1.881-7.244-.017-.268-.002zm-9.2 1.076a1.552 1.552 0 110 3.105 1.552 1.552 0 010-3.105zm11.27 7.807H2.492v-1.331h12.822v1.33zm0-2.317H2.492v-1.33h12.823v1.33z"/></symbol><symbol viewBox="0 0 24 24" id="calendar" xmlns="http://www.w3.org/2000/svg"><path d="M21.188 1.875h-1.125V0h-1.875v1.875H5.813V0H3.938v1.875H2.812A2.816 2.816 0 000 4.688v16.5A2.816 2.816 0 002.813 24h18.375A2.816 2.816 0 0024 21.187v-16.5a2.816 2.816 0 00-2.813-2.812zm.937 19.313c0 .516-.42.937-.938.937H2.813a.939.939 0 01-.937-.938V8.813h20.25v12.376zm0-14.25H1.875v-2.25c0-.517.42-.938.938-.938h1.124v1.875h1.876V3.75h12.375v1.875h1.875V3.75h1.125c.516 0 .937.42.937.938v2.25z"/><path d="M5.438 10.781H3.563v1.875h1.874v-1.875zm3.75 0H7.312v1.875h1.875v-1.875zm3.75 0h-1.876v1.875h1.876v-1.875zm3.75 0h-1.875v1.875h1.874v-1.875zm3.75 0h-1.875v1.875h1.875v-1.875zm-15 3.75H3.563v1.875h1.874v-1.875zm3.75 0H7.312v1.875h1.875v-1.875zm3.75 0h-1.876v1.875h1.876v-1.875zm3.75 0h-1.875v1.875h1.874v-1.875zm-11.25 3.75H3.563v1.875h1.874v-1.875zm3.75 0H7.312v1.875h1.875v-1.875zm3.75 0h-1.876v1.875h1.876v-1.875zm3.75 0h-1.875v1.875h1.874v-1.875zm3.75-3.75h-1.875v1.875h1.875v-1.875z"/></symbol><symbol viewBox="0 0 344.96 344.96" id="check" xmlns="http://www.w3.org/2000/svg"><g data-name="Слой 2"><path d="M321.85 86.24l-40-23.11-23.1-40H212.5L172.48 0l-40 23.11H86.24l-23.11 40-40 23.1v46.21L0 172.48l23.11 40v46.21l40 23.11 23.11 40h46.21l40 23.1 40-23.11h46.21l23.11-40 40-23.11V212.5l23.11-40-23.11-40V86.24zM156.91 243.07a16.79 16.79 0 01-23.34 0l-50.45-50.44a16.19 16.19 0 010-22.89l13.35-13.35a16.19 16.19 0 0122.89 0l25.87 25.87 80.34-80.35a16.19 16.19 0 0122.89 0l13.35 13.35a16.19 16.19 0 010 22.89z" data-name="Capa 1"/></g></symbol><symbol viewBox="0 0 15 15" id="comment" xmlns="http://www.w3.org/2000/svg"><path d="M12.938 0H2.062C.925 0 0 1.006 0 2.241v7.235c0 1.233.921 2.237 2.055 2.241V15l4.34-3.283h6.543c1.137 0 2.062-1.005 2.062-2.241V2.24C15 1.006 14.075 0 12.938 0zm-1.953 8.407h-6.97v-.955h6.97v.955zm0-2.038h-6.97v-.955h6.97v.955zm0-2.038h-6.97v-.955h6.97v.955z"/></symbol><symbol viewBox="0 0 18 21" id="copy" xmlns="http://www.w3.org/2000/svg"><path d="M11.115 21H3.281A3.285 3.285 0 010 17.719V6.604a3.285 3.285 0 013.281-3.282h7.834a3.285 3.285 0 013.281 3.282v11.115A3.285 3.285 0 0111.117 21zM3.281 4.963c-.904 0-1.64.736-1.64 1.64V17.72c0 .904.736 1.64 1.64 1.64h7.834c.905 0 1.64-.736 1.64-1.64V6.604c0-.905-.735-1.641-1.64-1.641H3.281zm14.397 10.705V3.281A3.285 3.285 0 0014.396 0H5.291a.82.82 0 100 1.64h9.105c.905 0 1.641.737 1.641 1.641v12.387a.82.82 0 101.64 0z"/></symbol><symbol viewBox="0 0 26 26" id="doc" xmlns="http://www.w3.org/2000/svg"><path d="M22.368 18.992c-.314 0-.568.227-.568.508v4.977c0 .28-.255.507-.568.507H1.703c-.313 0-.568-.227-.568-.507v-9.192c0-.28-.254-.508-.567-.508-.314 0-.568.228-.568.508v9.192C0 25.317.764 26 1.703 26h19.53c.939 0 1.703-.683 1.703-1.523V19.5c0-.28-.255-.508-.568-.508z"/><path d="M24.597 9.504a4.86 4.86 0 00-1.661-.967V5.484h-.002a.48.48 0 00-.165-.36L17.206.15a.603.603 0 00-.401-.15H1.703C.764 0 0 .683 0 1.523v9.463c0 .28.254.507.568.507.313 0 .568-.227.568-.507V1.523c0-.28.254-.507.567-.507h14.534v3.452c0 .84.764 1.524 1.703 1.524h3.86v2.29c-1.42-.157-2.903.249-3.99 1.222L9.717 16.74a.47.47 0 000 .718.616.616 0 00.803 0l8.091-7.237c1.429-1.278 3.753-1.278 5.182 0 1.428 1.277 1.428 3.357 0 4.634l-7.59 6.788c-.89.797-2.34.797-3.23 0-.432-.386-.67-.9-.67-1.445 0-.546.238-1.06.67-1.445l7.626-6.82a.939.939 0 01.629-.234.94.94 0 01.629.233c.168.15.26.35.26.563a.75.75 0 01-.26.563l-6.873 6.147a.47.47 0 000 .718.616.616 0 00.803 0l6.873-6.147a1.71 1.71 0 00.593-1.281c0-.484-.21-.939-.593-1.28a2.138 2.138 0 00-1.432-.531c-.541 0-1.05.188-1.432.53l-7.626 6.82c-1.333 1.194-1.333 3.134 0 4.327.667.597 1.542.895 2.418.895.876 0 1.752-.299 2.419-.895l7.589-6.788c1.87-1.673 1.87-4.397 0-6.07zM17.94 4.976c-.313 0-.568-.228-.568-.508V1.734l3.625 3.242H17.94zM.97 12.804a.608.608 0 00-.402-.149.61.61 0 00-.402.149.485.485 0 00-.166.359c0 .133.06.265.166.359a.607.607 0 00.402.149c.15 0 .296-.054.401-.149a.486.486 0 00.167-.359.486.486 0 00-.167-.359z"/><path d="M8.853 18.503l-.012-.031c-.096-.267-.417-.413-.715-.327-.298.087-.461.373-.365.64l.012.031c.077.215.3.351.54.351a.632.632 0 00.175-.025c.298-.086.461-.373.365-.64z"/></symbol><symbol viewBox="0 0 11 15" id="document-i" xmlns="http://www.w3.org/2000/svg"><path d="M6.417 3.984V0H.687A.694.694 0 000 .703v13.594c0 .39.307.703.688.703h9.624a.694.694 0 00.688-.703v-9.61H7.104a.697.697 0 01-.687-.703zm1.833 6.914a.349.349 0 01-.344.352H3.094a.349.349 0 01-.344-.352v-.234c0-.193.155-.351.344-.351h4.812c.19 0 .344.158.344.351v.234zm0-1.875a.349.349 0 01-.344.352H3.094a.349.349 0 01-.344-.352V8.79c0-.193.155-.351.344-.351h4.812c.19 0 .344.158.344.351v.234zm0-2.109v.234a.349.349 0 01-.344.352H3.094a.349.349 0 01-.344-.352v-.234c0-.193.155-.351.344-.351h4.812c.19 0 .344.158.344.351zM11 3.571v.179H7.333V0h.175a.68.68 0 01.487.205l2.804 2.871c.13.132.201.31.201.495z"/></symbol><symbol viewBox="0 0 20 20" id="exit" xmlns="http://www.w3.org/2000/svg"><path d="M12.917 15h-.834a.417.417 0 00-.416.417v2.916h-10V1.667h10v2.916c0 .23.186.417.416.417h.834c.23 0 .416-.187.416-.417V1.667c0-.92-.746-1.667-1.666-1.667h-10C.747 0 0 .746 0 1.667v16.666C0 19.253.746 20 1.667 20h10c.92 0 1.666-.746 1.666-1.667v-2.916a.417.417 0 00-.416-.417z"/><path d="M19.865 9.693l-5-4.584a.416.416 0 00-.698.308v.833c0 .118.05.23.138.31L17.2 9.167H5.417A.416.416 0 005 9.583v.834c0 .23.186.416.417.416H17.2l-2.896 2.607a.416.416 0 00-.138.31v.833a.416.416 0 00.698.307l5-4.583a.416.416 0 000-.614z"/></symbol><symbol viewBox="0 0 17 15" id="expand" xmlns="http://www.w3.org/2000/svg"><g clip-path="url(#aoclip0)"><path d="M14.349 12.857H2.39V2.143h5.98V0H0v15h16.74V7.5h-2.391v5.357z"/><path d="M10.76 0v2.143h1.897l-5.134 4.6 1.691 1.515 5.133-4.6v1.7h2.392V0H10.76z"/></g><defs><clipPath id="aoclip0"><path d="M0 0h16.74v15H0z"/></clipPath></defs></symbol><symbol viewBox="0 0 24 24" id="instagram" xmlns="http://www.w3.org/2000/svg"><path d="M17.377 0A6.63 6.63 0 0124 6.623v10.754A6.63 6.63 0 0117.377 24H6.623A6.63 6.63 0 010 17.377V6.623A6.63 6.63 0 016.623 0zm4.494 17.377V6.623a4.499 4.499 0 00-4.494-4.494H6.623a4.499 4.499 0 00-4.494 4.494v10.754a4.499 4.499 0 004.494 4.494h10.754a4.499 4.499 0 004.494-4.494z"/><path d="M18.188 12.004a6.19 6.19 0 01-6.184 6.184 6.19 6.19 0 01-6.184-6.184 6.191 6.191 0 016.184-6.184 6.191 6.191 0 016.184 6.184zm-2.13 0a4.06 4.06 0 00-4.054-4.055 4.06 4.06 0 00-4.055 4.055 4.06 4.06 0 004.055 4.054 4.06 4.06 0 004.055-4.054zm2.384-7.994a1.567 1.567 0 00-1.562 1.562c0 .41.168.813.459 1.104.29.29.692.457 1.103.457.411 0 .813-.167 1.104-.457.291-.291.457-.694.457-1.104a1.57 1.57 0 00-.457-1.105 1.568 1.568 0 00-1.104-.457z"/></symbol><symbol viewBox="0 0 19 14" id="logout" xmlns="http://www.w3.org/2000/svg"><path d="M15.438 13.713H12.32a.438.438 0 01-.445-.429v-1.428c0-.236.2-.429.445-.429h3.117c.657 0 1.188-.51 1.188-1.142V3.428c0-.632-.53-1.143-1.188-1.143H12.32a.438.438 0 01-.445-.428V.429c0-.236.2-.429.445-.429h3.117C17.404 0 19 1.536 19 3.428v6.857c0 1.892-1.596 3.428-3.563 3.428zm-1.745-7.178l-6.234-6C6.902 0 5.938.376 5.938 1.144V4.57H.89c-.494 0-.891.382-.891.857v3.428c0 .475.397.857.89.857h5.048v3.428c0 .768.964 1.143 1.521.607l6.234-5.999a.841.841 0 000-1.214z"/></symbol><symbol viewBox="0 0 12 16" id="microfon" xmlns="http://www.w3.org/2000/svg"><path d="M6 10.105c1.423 0 2.563-1.128 2.563-2.526l.008-5.053C8.571 1.128 7.423 0 6 0 4.577 0 3.429 1.128 3.429 2.526V7.58c0 1.398 1.148 2.526 2.571 2.526zm4.543-2.526c0 2.526-2.177 4.295-4.543 4.295s-4.543-1.769-4.543-4.295H0c0 2.872 2.331 5.246 5.143 5.659V16h1.714v-2.762C9.67 12.834 12 10.458 12 7.579h-1.457z"/></symbol><symbol viewBox="0 0 22 17" id="mnu-1" xmlns="http://www.w3.org/2000/svg"><path d="M18.639 16.089a.912.912 0 01-.917.911H13.29a.458.458 0 01-.459-.456v-4.253a.458.458 0 00-.458-.456h-2.75a.458.458 0 00-.459.456v4.253c0 .25-.206.456-.458.456h-4.43a.912.912 0 01-.917-.911v-5.442c0-.137.061-.266.168-.354l7.182-5.878a.468.468 0 01.584 0l7.181 5.878a.464.464 0 01.165.354zm3.193-7.755c.195.16.225.444.065.642l-.974 1.177a.462.462 0 01-.646.06l-8.984-7.355a.468.468 0 00-.584 0l-8.985 7.356a.461.461 0 01-.645-.061L.105 8.976a.455.455 0 01.06-.642L9.835.416a1.84 1.84 0 012.33 0l3.419 2.799V.458c0-.251.206-.456.458-.456h2.14c.251 0 .457.205.457.456v5.26z"/></symbol><symbol viewBox="0 0 22 23" id="mnu-10" xmlns="http://www.w3.org/2000/svg"><path d="M1.38 12.2v8.625c0 .793.617 1.438 1.375 1.438H9.63V12.2zm19.245-5.748c.759 0 1.375.646 1.375 1.438v2.156c0 .397-.308.719-.688.719h-8.937V7.89h-2.75v2.875H.687c-.379 0-.687-.322-.687-.719V7.89c0-.792.617-1.438 1.375-1.438h4.35a5.493 5.493 0 01-.768-.642C3.85 4.644 3.85 2.746 4.958 1.58 6.035.449 7.913.449 8.991 1.58c.596.626 2.177 3.172 1.96 4.872h.098c-.218-1.7 1.363-4.246 1.96-4.871 1.077-1.133 2.955-1.136 4.033 0 1.11 1.165 1.11 3.063 0 4.229-.187.198-.455.42-.768.642zM8.016 2.594a1.428 1.428 0 00-1.04-.454 1.43 1.43 0 00-1.043.454 1.62 1.62 0 000 2.202c.593.624 2.406 1.656 3.356 1.656.197 0 .255-.047.255-.047.32-.347-.601-2.836-1.528-3.81zm8.05 2.202a1.616 1.616 0 000-2.202 1.453 1.453 0 00-2.082 0c-.927.975-1.848 3.464-1.528 3.81 0 .002.058.048.253.048.952 0 2.765-1.032 3.358-1.656zM12.38 12.2v10.063h6.875c.759 0 1.375-.645 1.375-1.438V12.2z"/></symbol><symbol viewBox="0 0 22 24" id="mnu-2" xmlns="http://www.w3.org/2000/svg"><path d="M19.556 2.4C20.9 2.4 22 3.48 22 4.8v16.8c0 1.32-1.1 2.4-2.444 2.4H2.444C1.1 24 0 22.92 0 21.6V4.8c0-1.32 1.1-2.4 2.444-2.4h5.11a3.675 3.675 0 016.893 0zm-7.334 1.2c0-.66-.55-1.2-1.222-1.2-.672 0-1.222.54-1.222 1.2 0 .66.55 1.2 1.222 1.2.672 0 1.222-.54 1.222-1.2zm-4.889 7.2c0 1.992 1.638 3.6 3.667 3.6s3.667-1.608 3.667-3.6S13.029 7.2 11 7.2s-3.667 1.608-3.667 3.6zM3.667 21.6h14.666v-1.68c0-2.4-4.888-3.72-7.333-3.72-2.444 0-7.333 1.32-7.333 3.72z"/></symbol><symbol viewBox="0 0 22 22" id="mnu-3" xmlns="http://www.w3.org/2000/svg"><path d="M7.8 8.27h6.25v2.002H7.8zm7.414-1.296l1.957-.838-6.175-2.646L4.82 6.136l1.957.838zM22 18.346V15.08H0v3.266h8.22v.773c0 .877-.714 1.59-1.59 1.59H4.64v1.289h12.72v-1.29h-1.99c-.876 0-1.59-.712-1.59-1.589v-.773z"/><path d="M0 13.793V0h22v13.793zm2.668-7.175l3.846 1.648v3.293h8.828V8.327l1.529-.654v2.517h1.289V7.12l1.172-.502v-.957L11 2.091l-8.332 3.57z"/></symbol><symbol viewBox="0 0 22 22" id="mnu-4" xmlns="http://www.w3.org/2000/svg"><path d="M18.977 15.13c0-.512.16-1.007.453-1.42H.42a2.709 2.709 0 00.001 2.841h19.01a2.452 2.452 0 01-.454-1.42zM16.712 4.99c.36 0 .652.292.652.652v3.78c0 1.16-.462 2.213-1.212 2.986H8.055a4.31 4.31 0 01-.818-1.187h-.59A2.59 2.59 0 014.06 8.634a2.59 2.59 0 012.587-2.587h.195v-.405c0-.36.292-.652.652-.652zM6.87 9.916a4.309 4.309 0 01-.028-.494V7.351h-.195a1.284 1.284 0 000 2.565zm14.708 7.934H2.568a2.451 2.451 0 01-.172 3.058.652.652 0 00.486 1.088h16.372a2.728 2.728 0 002.725-2.725 2.71 2.71 0 00-.401-1.421zM13.002 0a.652.652 0 00-.652.652v2.87a.652.652 0 001.304 0V.652A.652.652 0 0013.002 0zm-1.79 1.43a.652.652 0 00-.652.652v1.435a.652.652 0 001.304 0V2.082a.652.652 0 00-.652-.652z"/></symbol><symbol viewBox="0 0 22 18" id="mnu-5" xmlns="http://www.w3.org/2000/svg"><path d="M5.84 8.125v5.235h10.313V8.125a11.611 11.611 0 00-5.157-1.205c-1.792 0-3.575.417-5.156 1.205z"/><path d="M20.668 6.99L22 6.264 11 .51 0 6.264l4.555 2.402V7.32C4.917 7.182 7.358 5.625 11 5.625c3.693 0 6.055 1.547 6.445 1.696v1.345L19.38 7.66v4.896l-1.332 2.858 1.976 2.073L22 15.415l-1.332-2.857z"/></symbol><symbol viewBox="0 0 22 20" id="mnu-6" xmlns="http://www.w3.org/2000/svg"><path d="M21.156 3.064L7.682.213a1.063 1.063 0 00-1.256.817L6.17 2.675l15.547 3.29.256-1.645a1.062 1.062 0 00-.817-1.256zm-5.431 4.091L21.137 8.3l-.95 4.491c-.121.57-.686.938-1.257.817l-1.502-.317.401 1.444a1.073 1.073 0 01-.744 1.316L3.69 19.77a1.073 1.073 0 01-1.316-.745L.039 10.61a1.072 1.072 0 01.744-1.316l4.144-1.15.663-3.133 6.03 1.276 2.558-.71a1.073 1.073 0 011.316.745zm1.316 3.442a.437.437 0 00.336.517l1.566.331a.437.437 0 00.516-.336l.332-1.565a.437.437 0 00-.337-.517l-1.565-.331a.437.437 0 00-.517.336zm-16.025-.464a.2.2 0 00-.137.244l.456 1.645L15.11 8.199l-.346-1.247-.11-.398a.202.202 0 00-.244-.138l-.94.262-8.747 2.427zm15.451 2.954l-.84-3.027-13.775 3.823 1.362 4.908a.202.202 0 00.243.137l13.395-3.717a.194.194 0 00.118-.093.194.194 0 00.019-.15z"/><path d="M5.62 15.3a.437.437 0 00-.537-.304l-1.564.434a.437.437 0 00-.303.537l.434 1.564a.437.437 0 00.537.303L5.75 17.4a.437.437 0 00.303-.537z"/></symbol><symbol viewBox="0 0 22 22" id="mnu-7" xmlns="http://www.w3.org/2000/svg"><path d="M12.583 5.542L7.221.67 5.96 2.058l6.431 3.484zM.79 8.625l.107-.197L.9 7.62l-.549.604zm20.312 4.942l-.002.808.55-.604-.441-.401zM9.42 16.46l5.362 4.872 1.261-1.388-6.431-3.484zm11.681-4.212l-.001.543v.02l.007-.014.893-1.649-.55-.298zM0 10.843l.55.298.35-1.398V9.18l-.007.014zM5.708 2.33l-.162-.088-.163-.088-.523-.284-.94 1.735.118.03.198.048.197.05 7.162 1.785zM17.76 18.314l-.198-.049L10.4 16.48l5.887 3.188.162.088.162.088.524.284.94-1.735-.118-.03zM2.476 5.516h.407l7.292.018-6.017-1.5-.198-.049-.197-.049-.02-.005-.18-.045-.18-.045-.608-.151-.455 1.826h.008zM19.52 16.488h-.409l-7.292-.018 6.017 1.5.198.049.198.049.02.005.18.045.18.045.607.151.455-1.825h-.008zm1.58-6.023v.29l.019-.076.045-.18.045-.18.477-1.914-.58-.145-.005 2zM.832 11.506l-.045.18L.31 13.6l.58.144.004-2 .001-.204v-.204l.001-.086-.019.076zM13.51 5.9l7.245.017-.004 1.881v.185l-.001.185-.005 1.896v.406l-.005 1.734v.262l-.001.242v.245l-.002.524v.225l-.001.153-.001.379-.001.538-.001.268-.001.267-.002.817-.597-.001h-.42l-.205-.001h-.204l-8.94-.022-.666-.002H9.32l-.3-.001h-.153l-.115-.001h-.268l-7.244-.018.004-1.882v-.185l.001-.185.005-1.895v-.408l.005-1.734v-.262l.001-.242V9.04l.002-.524V8.14l.002-.378.001-.539v-.267l.002-.268.001-.817.598.001h.185l.184.001h.459l8.94.022.666.002h.083l.296.001h.378l.075.001h.115zM2.49 8.526a1.552 1.552 0 103.105 0 1.552 1.552 0 00-3.105 0zm12.822 6.255V13.45H2.49v1.332zm0-2.317v-1.33H2.49v1.33z"/></symbol><symbol viewBox="0 0 16 22" id="mnu-8" xmlns="http://www.w3.org/2000/svg"><path d="M9.823 16.5H5.697a.66.66 0 00-.48.206.66.66 0 00-.207.482v4.125a.66.66 0 00.206.481.66.66 0 00.481.206h4.126a.659.659 0 00.48-.206.658.658 0 00.207-.481v-4.125a.658.658 0 00-.206-.482.658.658 0 00-.481-.206zm5.416-12.35a7.127 7.127 0 00-1.823-2.19A9.316 9.316 0 0010.907.532 7.703 7.703 0 008.14 0C4.657 0 1.998 1.524.165 4.572a.678.678 0 00.172.91l2.819 2.15a.823.823 0 00.43.137c.206 0 .383-.092.532-.275.825-1.032 1.438-1.69 1.84-1.977.492-.332 1.11-.498 1.855-.498.7 0 1.315.183 1.848.55.533.366.8.79.8 1.272 0 .538-.144.973-.43 1.306-.287.332-.768.653-1.444.962-.894.401-1.714 1.023-2.458 1.865-.745.842-1.117 1.739-1.117 2.69v.773c0 .218.06.433.18.645.12.212.266.318.438.318h4.126c.183 0 .343-.089.48-.267a.9.9 0 00.207-.558c0-.286.158-.67.472-1.151a3.37 3.37 0 011.178-1.118c.447-.252.796-.455 1.048-.61.253-.154.582-.404.989-.748.407-.344.722-.685.945-1.022.224-.338.424-.777.602-1.315a5.498 5.498 0 00.266-1.736 5.63 5.63 0 00-.704-2.724z"/></symbol><symbol viewBox="0 0 22 22" id="mnu-9" xmlns="http://www.w3.org/2000/svg"><path d="M8.647 9.429a1.179 1.179 0 11-2.357 0 1.179 1.179 0 012.357 0zm.384 3.141H5.89a1.18 1.18 0 00-1.179 1.179v1.964h5.5v-1.964a1.18 1.18 0 00-1.179-1.179zM22 19.64h-8.53l-1.174.786H9.691l-1.166-.786H0v1.179c0 .65.528 1.178 1.179 1.178H20.82c.651 0 1.179-.528 1.179-1.178z"/><path d="M.79 18.86h7.979l1.166.786h2.13l1.172-.786h7.982V7.04c-.247.21-.51.399-.786.566v10.468H1.576V5.896h9.212a3.969 3.969 0 01-.364-.786H1.969A1.18 1.18 0 00.79 6.289z"/><path d="M11.229 10.216a.393.393 0 00.524.497l4.715-2.069h.035a7.888 7.888 0 003.143-.638v9.281H2.36V6.68h9.031c.271.282.571.534.895.752zM5.503 9.43a1.964 1.964 0 103.929 0 1.964 1.964 0 00-3.93 0zm5.5 4.321a1.967 1.967 0 00-1.964-1.964H5.896a1.967 1.967 0 00-1.965 1.964v2.75h7.072z"/><path d="M22 3.929C22 1.762 19.533 0 16.5 0S11 1.762 11 3.929c0 1.157.717 2.253 1.967 3.006a.393.393 0 01.164.476l-.838 2.205 3.932-1.726a.4.4 0 01.157-.033h.118c3.033 0 5.5-1.762 5.5-3.928z"/></symbol><symbol viewBox="0 0 20 22" id="padlock" xmlns="http://www.w3.org/2000/svg"><path d="M16.286 9.625v.5h1.571c.925 0 1.643.718 1.643 1.563v8.25c0 .844-.718 1.562-1.643 1.562H2.143C1.218 21.5.5 20.782.5 19.937v-8.25c0-.844.718-1.562 1.643-1.562h1.571V6.531C3.714 3.224 6.517.5 10 .5c3.483 0 6.286 2.724 6.286 6.031v3.094zm-3.072.5h.5V6.531c0-2-1.684-3.593-3.714-3.593-2.03 0-3.714 1.593-3.714 3.593v3.594h6.928z"/></symbol><symbol viewBox="0 0 15 17" id="pay" xmlns="http://www.w3.org/2000/svg"><path d="M15 2.429v1.517c0 1.338-3.36 2.429-7.5 2.429-4.14 0-7.5-1.091-7.5-2.429V2.43C0 1.09 3.36 0 7.5 0 11.64 0 15 1.091 15 2.429zm0 3.415v3.415c0 1.338-3.36 2.428-7.5 2.428-4.14 0-7.5-1.09-7.5-2.428V5.844c1.611 1.1 4.56 1.612 7.5 1.612 2.94 0 5.889-.512 7.5-1.612zm0 5.312v3.415C15 15.91 11.64 17 7.5 17 3.36 17 0 15.909 0 14.571v-3.415c1.611 1.1 4.56 1.613 7.5 1.613 2.94 0 5.889-.512 7.5-1.613z"/></symbol><symbol viewBox="0 0 18 15" id="pencil" xmlns="http://www.w3.org/2000/svg"><path d="M11.356 2.503l3.405 3.067-8.618 7.761-3.403-3.066 8.616-7.762zm5.988-.74L15.826.397c-.587-.528-1.54-.528-2.129 0l-1.454 1.31 3.405 3.067 1.696-1.528a.974.974 0 000-1.481zM.959 14.576c-.062.25.19.476.468.415l3.794-.829-3.402-3.066-.86 3.48z"/></symbol><symbol viewBox="0 0 42 42" id="play" xmlns="http://www.w3.org/2000/svg"><path d="M21 0C9.4 0 0 9.4 0 21s9.4 21 21 21 21-9.4 21-21S32.6 0 21 0zm9.797 23.032l-14.903 8.553c-1.338.745-3.023-.212-3.023-1.779V12.194c0-1.557 1.677-2.523 3.023-1.778l14.903 9.06c1.389.78 1.389 2.787 0 3.557z"/></symbol><symbol viewBox="0 0 38 30" id="playlist" xmlns="http://www.w3.org/2000/svg"><path fill-rule="evenodd" clip-rule="evenodd" d="M34.145 2.778c.943.272 1.652 1.454 1.652 2.867v18.71c0 1.415-.71 2.595-1.652 2.867V2.778zM38 8.41v12.625c0 1.408-.474 2.583-1.101 2.854V5.556C37.527 5.826 38 7.003 38 8.41zM0 2.133C0 .955.944 0 2.111 0h28.822c1.165 0 2.11.956 2.11 2.133v25.733A2.122 2.122 0 0130.934 30H2.11A2.123 2.123 0 010 27.866V2.133zm13.955 18.201c-1.016.573-1.84.085-1.84-1.095v-8.477c0-1.178.826-1.667 1.84-1.095l7.61 4.296c1.016.573 1.013 1.503 0 2.075l-7.61 4.296z"/></symbol><symbol viewBox="0 0 17 17" id="refresh" xmlns="http://www.w3.org/2000/svg"><g clip-path="url(#bhclip0)"><path d="M14.346 0a.603.603 0 00-.598.607v2.218a7.671 7.671 0 00-10.967.18A7.943 7.943 0 00.598 8.5c0 .335.267.607.597.607.33 0 .598-.272.598-.607 0-3.688 2.945-6.678 6.577-6.677a6.53 6.53 0 014.849 2.169l-2.648.897a.61.61 0 00-.38.768.597.597 0 00.757.385l3.587-1.214a.607.607 0 00.409-.578V.607A.603.603 0 0014.346 0zm1.196 7.893a.603.603 0 00-.598.607c0 3.689-2.945 6.678-6.577 6.677a6.53 6.53 0 01-4.849-2.169l2.648-.897a.61.61 0 00.38-.768.596.596 0 00-.757-.385l-3.587 1.214a.606.606 0 00-.409.578v3.643c0 .335.268.607.598.607.33 0 .598-.272.598-.607v-2.218a7.671 7.671 0 0010.967-.18A7.943 7.943 0 0016.139 8.5a.602.602 0 00-.597-.607z"/></g><defs><clipPath id="bhclip0"><path d="M0 0h16.737v17H0z"/></clipPath></defs></symbol><symbol viewBox="0 0 20 18" id="see" xmlns="http://www.w3.org/2000/svg"><path d="M11.086 15.417A11.292 11.292 0 01.23 9.857a1.704 1.704 0 010-1.714 11.315 11.315 0 013.334-3.605l1.982 2.867A4.834 4.834 0 005.277 9c0 2.627 2.089 4.756 4.678 4.78zm8.683-5.56a11.317 11.317 0 01-4.693 4.411l1.44 2.082a.85.85 0 01-.205 1.175l-.455.322a.827.827 0 01-1.16-.207L3.484 1.65A.85.85 0 013.689.475l.455-.322a.827.827 0 011.16.207l1.773 2.553A11.327 11.327 0 0110 2.53c4.16 0 7.811 2.248 9.77 5.612a1.704 1.704 0 010 1.714zM14.722 9c0-2.643-2.112-4.781-4.722-4.781-.623 0-1.217.122-1.761.343l.67.952a3.578 3.578 0 012.791.26c-.822 0-1.487.674-1.487 1.505 0 .831.664 1.506 1.486 1.506s1.487-.674 1.487-1.506a3.693 3.693 0 01-.286 3.9l.67.952A4.798 4.798 0 0014.722 9zm-5.624 3.541c-1.674-.436-2.866-2.052-2.692-3.894z"/></symbol><symbol viewBox="0 0 7 12" id="slider-arrow" xmlns="http://www.w3.org/2000/svg"><path d="M6.814 6.466l-5.133 5.34a.617.617 0 01-.897 0l-.598-.622a.678.678 0 01-.001-.932L4.253 6 .185 1.748a.678.678 0 010-.932l.6-.623a.617.617 0 01.896 0l5.133 5.34a.679.679 0 010 .933z"/></symbol><symbol viewBox="0 0 32 24" id="stat" xmlns="http://www.w3.org/2000/svg"><path d="M28.39 19.5a.62.62 0 01.61.625v1.25a.62.62 0 01-.61.625H3.61a.62.62 0 01-.61-.625V2.625A.62.62 0 013.61 2h1.218a.62.62 0 01.61.625V19.5H28.39zm-18.078-3.125v-3.75A.62.62 0 009.704 12h-1.22a.62.62 0 00-.609.625v3.75a.62.62 0 00.61.625h1.218a.62.62 0 00.61-.625zm4.876 0V5.958a.62.62 0 00-.61-.625H13.36a.62.62 0 00-.609.625v10.417a.62.62 0 00.61.625h1.218a.62.62 0 00.61-.625zm4.874 0V9.292a.62.62 0 00-.609-.625h-1.219a.62.62 0 00-.609.625v7.083a.62.62 0 00.61.625h1.218a.62.62 0 00.61-.625zm4.875 0V4.292a.62.62 0 00-.609-.625H23.11a.62.62 0 00-.609.625v12.083a.62.62 0 00.61.625h1.218a.62.62 0 00.61-.625z"/></symbol><symbol viewBox="0 0 26 30" id="student" xmlns="http://www.w3.org/2000/svg"><path d="M17.906 18.786l-5.324 5.59-5.324-5.59c-3.99.181-7.176 3.609-7.176 7.84v.562C.082 28.74 1.282 30 2.761 30h19.643c1.478 0 2.678-1.26 2.678-2.812v-.563c0-4.23-3.186-7.658-7.176-7.84zM.84 4.677l.357.088v3.422c-.39.246-.67.673-.67 1.189 0 .492.257.902.62 1.154l-.87 3.65c-.096.405.117.82.423.82h2.333c.307 0 .519-.415.424-.82l-.87-3.65a1.4 1.4 0 00.619-1.154c0-.516-.279-.943-.67-1.19v-3.08l3.683.931c-.48 1.008-.78 2.133-.78 3.34 0 4.142 3.197 7.5 7.142 7.5 3.945 0 7.143-3.358 7.143-7.5a7.663 7.663 0 00-.781-3.34l5.373-1.359c1.016-.258 1.016-1.588 0-1.846L13.693.136a4.572 4.572 0 00-2.216 0L.841 2.826a.944.944 0 000 1.851z"/></symbol><symbol viewBox="0 0 23 23" id="telegram" xmlns="http://www.w3.org/2000/svg"><g clip-path="url(#bmclip0)"><path d="M8.386 16.878v4.445a.72.72 0 001.297.425l2.6-3.538-3.897-1.332zM22.698.133a.719.719 0 00-.75-.052L.386 11.34a.72.72 0 00.1 1.318l5.994 2.049L19.246 3.792 9.367 15.694l10.046 3.434a.722.722 0 00.943-.574L22.992.824a.72.72 0 00-.294-.691z"/></g><defs><clipPath id="bmclip0"><path d="M0 0h23v23H0z"/></clipPath></defs></symbol><symbol viewBox="0 0 22 20" id="text-list" xmlns="http://www.w3.org/2000/svg"><path d="M5.637 0c-1.384 0-2.51 1.099-2.51 2.444L3.035 15.12l1.37.01.09-12.68c0-.607.513-1.1 1.142-1.1h13.761V0H5.637z"/><path d="M19.398 0c-1.434 0-2.601 1.15-2.601 2.562v14.225c0 1.028-.85 1.865-1.895 1.865-1.044 0-1.894-.837-1.894-1.866v-1.64a.68.68 0 00-.684-.674H.684a.68.68 0 00-.684.674v1.64C0 18.558 1.464 20 3.263 20v-1.348c-1.044 0-1.894-.837-1.894-1.866v-.966h10.27v.966c0 1.772 1.464 3.214 3.264 3.214 1.799 0 3.263-1.442 3.263-3.213V6.247h3.15A.68.68 0 0022 5.573V2.562C22 1.149 20.833 0 19.398 0zm1.233 4.899h-2.465V2.562c0-.67.553-1.214 1.232-1.214.68 0 1.233.545 1.233 1.214v2.337z"/><path d="M14.742 18.652H3.127V20h11.616v-1.348zM10.178 3.753H6.641a.68.68 0 00-.685.674.68.68 0 00.685.674h3.537a.68.68 0 00.685-.674.68.68 0 00-.685-.674zm4.108 2.697H6.641a.68.68 0 00-.685.674.68.68 0 00.685.674h7.645a.68.68 0 00.685-.674.68.68 0 00-.685-.675zm0 2.696H6.641a.68.68 0 00-.685.674.68.68 0 00.685.674h7.645a.68.68 0 00.685-.674.68.68 0 00-.685-.674zm0 2.697H6.641a.68.68 0 00-.685.674.68.68 0 00.685.674h7.645a.68.68 0 00.685-.674.68.68 0 00-.685-.674z"/></symbol><symbol viewBox="0 0 14 14" id="timer" xmlns="http://www.w3.org/2000/svg"><path d="M12.874 2.752c.133.112.283.16.45.16a.673.673 0 00.5-.207.615.615 0 00-.05-.907l-.867-.748-.867-.748c-.267-.238-.7-.222-.934.048-.233.27-.233.668.05.907l.367.318-.667.716a7.119 7.119 0 00-2.618-1.146C8.22.94 8.138.715 7.97.51 7.804.286 7.454.032 6.821 0h-.034c-.584 0-.917.239-1.1.445-.2.223-.284.494-.317.7C2.3 1.765 0 4.391 0 7.493 0 11.073 3.052 14 6.804 14c3.752 0 6.803-2.911 6.803-6.507 0-1.67-.667-3.198-1.75-4.359l.666-.716.35.334zm-6.087 9.96c-3.018 0-5.47-2.34-5.47-5.219 0-2.88 2.452-5.218 5.47-5.218s5.47 2.339 5.47 5.218c0 2.88-2.452 5.218-5.47 5.218zm1.167-5.219c0 .605-.533 1.098-1.15 1.098-.634 0-1.134-.493-1.134-1.098 0-.366.166-.7.5-.89V4.024c0-.35.3-.636.667-.636.367 0 .667.286.667.636v2.577c.317.191.45.525.45.891z"/></symbol><symbol viewBox="0 0 15 17" id="user" xmlns="http://www.w3.org/2000/svg"><path d="M7.35 8.5c2.32 0 4.2-1.903 4.2-4.25S9.67 0 7.35 0c-2.32 0-4.2 1.903-4.2 4.25S5.03 8.5 7.35 8.5zm2.94 1.063h-.548a5.662 5.662 0 01-4.784 0H4.41C1.975 9.563 0 11.56 0 14.024v1.381C0 16.286.705 17 1.575 17h11.55c.87 0 1.575-.714 1.575-1.594v-1.381c0-2.464-1.975-4.463-4.41-4.463z"/></symbol><symbol viewBox="0 0 21 17" id="user-add" xmlns="http://www.w3.org/2000/svg"><path d="M20.475 6.906h-2.1V4.781a.53.53 0 00-.525-.531H16.8a.53.53 0 00-.525.531v2.125h-2.1a.53.53 0 00-.525.532V8.5a.53.53 0 00.525.531h2.1v2.125a.53.53 0 00.525.531h1.05a.53.53 0 00.525-.53V9.03h2.1A.53.53 0 0021 8.5V7.437a.53.53 0 00-.525-.53zM7.35 8.5c2.32 0 4.2-1.903 4.2-4.25S9.67 0 7.35 0c-2.32 0-4.2 1.903-4.2 4.25S5.03 8.5 7.35 8.5zm2.94 1.063h-.548a5.662 5.662 0 01-4.784 0H4.41C1.975 9.563 0 11.56 0 14.024v1.381C0 16.286.705 17 1.575 17h11.55c.87 0 1.575-.714 1.575-1.594v-1.381c0-2.464-1.975-4.463-4.41-4.463z"/></symbol><symbol viewBox="0 0 20 20" id="view" xmlns="http://www.w3.org/2000/svg"><path d="M.2 10a11 11 0 0119.6 0A11 11 0 01.2 10zm9.8 4a4 4 0 100-8 4 4 0 000 8zm0-2a2 2 0 110-4 2 2 0 010 4z"/></symbol><symbol viewBox="0 0 24 14" id="vk" xmlns="http://www.w3.org/2000/svg"><path d="M23.873 12.516a1.657 1.657 0 00-.081-.156c-.417-.75-1.213-1.67-2.387-2.762l-.025-.025-.012-.012-.013-.012h-.013c-.533-.509-.87-.85-1.012-1.025-.258-.333-.316-.67-.175-1.013.1-.258.475-.803 1.125-1.636.341-.442.612-.796.812-1.062 1.441-1.917 2.066-3.141 1.874-3.674l-.074-.125c-.05-.075-.18-.143-.387-.206-.209-.062-.475-.073-.8-.031l-3.599.025a.467.467 0 00-.25.006l-.162.038-.063.03-.05.038a.556.556 0 00-.137.132.86.86 0 00-.125.218 20.41 20.41 0 01-1.337 2.812c-.308.516-.592.964-.85 1.343s-.475.658-.65.837c-.175.18-.333.323-.475.431-.141.109-.25.154-.324.138a9.083 9.083 0 01-.213-.05.83.83 0 01-.281-.306 1.37 1.37 0 01-.144-.488 5.39 5.39 0 01-.043-.506 9.93 9.93 0 01.006-.6c.009-.258.012-.433.012-.525 0-.316.007-.66.019-1.03l.031-.881c.009-.217.013-.446.013-.688 0-.241-.015-.43-.044-.568a1.949 1.949 0 00-.13-.4.674.674 0 00-.257-.3 1.443 1.443 0 00-.419-.169c-.441-.1-1.003-.154-1.687-.162-1.55-.017-2.545.083-2.986.3a1.683 1.683 0 00-.475.375c-.15.183-.171.283-.063.3.5.074.854.253 1.062.537l.075.15c.059.108.117.3.176.575a5.8 5.8 0 01.112.912 9.726 9.726 0 010 1.562c-.042.433-.081.77-.119 1.012a2.027 2.027 0 01-.169.587c-.075.15-.125.242-.15.275a.215.215 0 01-.062.062.936.936 0 01-.337.063c-.117 0-.259-.058-.425-.175a2.998 2.998 0 01-.519-.481 6.431 6.431 0 01-.606-.856 15.06 15.06 0 01-.7-1.3l-.2-.362a31.154 31.154 0 01-.512-1.019 19.632 19.632 0 01-.575-1.293.824.824 0 00-.3-.4L4.712.94a.855.855 0 00-.2-.107 1.326 1.326 0 00-.287-.08L.8.775c-.35 0-.587.08-.712.238l-.05.075a.404.404 0 00-.038.2c0 .091.025.204.075.337a41.242 41.242 0 001.63 3.399c.588 1.091 1.098 1.97 1.531 2.636a31.13 31.13 0 001.325 1.887c.45.592.748.97.893 1.137a7.6 7.6 0 00.344.375l.312.3c.2.2.494.44.881.718.388.28.817.554 1.287.825.471.27 1.019.492 1.644.662a5.68 5.68 0 001.824.207h1.437c.292-.025.512-.117.662-.275l.05-.063a.83.83 0 00.094-.23c.03-.105.044-.22.044-.344a4.12 4.12 0 01.08-.969c.063-.287.134-.503.213-.65a1.598 1.598 0 01.482-.55.797.797 0 01.1-.043c.2-.066.434-.002.705.194.271.196.525.438.763.725.237.287.522.61.856.968.333.358.625.625.874.8l.25.15c.167.1.384.192.65.275.266.083.5.104.7.062l3.199-.05c.316 0 .562-.052.737-.156.175-.104.279-.219.312-.344a.97.97 0 00.007-.425 1.574 1.574 0 00-.088-.33z"/></symbol></svg>