<svg width="22" height="22" viewBox="0 0 22 22" fill="none" xmlns="http://www.w3.org/2000/svg">
<rect width="22" height="22" rx="11" fill="#219653"/>
<path d="M17.7652 7.38043L16.6245 6.23566C16.4681 6.07857 16.2779 6 16.0543 6C15.8306 6 15.6403 6.07857 15.4839 6.23566L9.98193 11.766L7.51611 9.28279C7.35954 9.12564 7.16944 9.04716 6.94586 9.04716C6.72213 9.04716 6.53203 9.12564 6.37546 9.28279L5.23483 10.4276C5.07826 10.5847 5 10.7755 5 11.0001C5 11.2244 5.07826 11.4154 5.23483 11.5725L9.41162 15.7643C9.56811 15.9215 9.75826 16 9.98193 16C10.2055 16 10.3957 15.9213 10.5522 15.7643L17.7652 8.52528C17.9216 8.36814 18 8.17732 18 7.95281C18.0001 7.72841 17.9216 7.53757 17.7652 7.38043Z" fill="white"/>
</svg>
