<svg width="28" height="30" viewBox="0 0 28 30" fill="none" xmlns="http://www.w3.org/2000/svg">
<path d="M25.4904 18.8794C25.1547 18.5854 24.8379 18.3077 24.6714 18.0087C24.662 17.9912 24.6516 17.9736 24.6409 17.9559L24.6356 17.9471C24.0471 17.0055 23.8336 14.7337 23.7061 13.3766C23.6873 13.1765 23.6692 12.9848 23.651 12.8041C23.6495 12.7888 23.6476 12.7734 23.6447 12.7515C23.3605 10.763 22.6556 7.89722 20.9118 5.53677C19.6834 3.87425 18.1513 2.76616 16.3541 2.23929C16.2495 0.987099 15.1969 0 13.9182 0C12.6393 0 11.5866 0.987186 11.4823 2.23964C9.68502 2.76607 8.153 3.87416 6.92462 5.53721C5.18089 7.89714 4.47598 10.7629 4.19082 12.7577C4.18882 12.7734 4.1869 12.7888 4.18533 12.805C4.16719 12.9851 4.14913 13.1764 4.13037 13.3764C4.00284 14.7339 3.78922 17.0059 3.19719 17.9531C3.18803 17.9684 3.17922 17.9836 3.16796 18.0034C2.99891 18.3072 2.68192 18.5852 2.34634 18.8794C1.54469 19.5822 0.0523589 20.8829 1.31886 23.2346C1.54112 23.6474 1.97055 23.8967 2.43959 23.8967H25.397C25.8655 23.8967 26.2949 23.6477 26.5178 23.2347C27.7838 20.8832 26.2921 19.5824 25.4904 18.8794Z" fill="#2746FF"/>
<path d="M16.8177 25.9902H11.1332C10.8208 25.9902 10.6368 26.1185 10.5372 26.2313C10.3917 26.3963 10.3289 26.6213 10.3605 26.8706C10.5864 28.6556 12.1151 30 13.9166 30C15.738 30 17.2688 28.6365 17.4773 26.8294C17.491 26.711 17.5014 26.4176 17.3036 26.1957C17.1821 26.0594 17.0096 25.9902 16.8177 25.9902Z" fill="#2746FF"/>
</svg>
