<svg width="15" height="18" viewBox="0 0 15 18" fill="none" xmlns="http://www.w3.org/2000/svg">
<path  d="M15 12.6562V0.84375C15 0.376172 14.6417 0 14.1964 0H3.21429C1.43973 0 0 1.51172 0 3.375V14.625C0 16.4883 1.43973 18 3.21429 18H14.1964C14.6417 18 15 17.6238 15 17.1562V16.5938C15 16.3301 14.8828 16.091 14.702 15.9363C14.5614 15.3949 14.5614 13.8516 14.702 13.3102C14.8828 13.159 15 12.9199 15 12.6562ZM4.28571 4.71094C4.28571 4.59492 4.37612 4.5 4.48661 4.5H11.5848C11.6953 4.5 11.7857 4.59492 11.7857 4.71094V5.41406C11.7857 5.53008 11.6953 5.625 11.5848 5.625H4.48661C4.37612 5.625 4.28571 5.53008 4.28571 5.41406V4.71094ZM4.28571 6.96094C4.28571 6.84492 4.37612 6.75 4.48661 6.75H11.5848C11.6953 6.75 11.7857 6.84492 11.7857 6.96094V7.66406C11.7857 7.78008 11.6953 7.875 11.5848 7.875H4.48661C4.37612 7.875 4.28571 7.78008 4.28571 7.66406V6.96094ZM12.7701 15.75H3.21429C2.62165 15.75 2.14286 15.2473 2.14286 14.625C2.14286 14.0063 2.625 13.5 3.21429 13.5H12.7701C12.7065 14.1012 12.7065 15.1488 12.7701 15.75Z" fill="#414D55"/>
</svg>
