<svg width="22" height="22" viewBox="0 0 22 22" fill="none" xmlns="http://www.w3.org/2000/svg">
<path d="M12.5822 5.53989L7.21976 0.667969L5.95898 2.05633L12.3901 5.53956L12.5822 5.53989Z" fill="#D1DBE2"/>
<path d="M0.795196 8.62414L0.901718 8.42724L0.903977 7.61914L0.354492 8.22351L0.795196 8.62414Z" fill="#D1DBE2"/>
<path d="M21.0982 13.572L21.0957 14.38L21.6451 13.776L21.2047 13.375L21.0982 13.572Z" fill="#D1DBE2"/>
<path d="M9.41797 16.459L14.7803 21.331L16.041 19.9426L9.60961 16.4594L9.41797 16.459Z" fill="#D1DBE2"/>
<path d="M21.1007 12.2514L21.0996 12.7942V12.8142L21.1067 12.8008L21.9998 11.1517L21.4493 10.8535L21.1007 12.2514Z" fill="#D1DBE2"/>
<path d="M0 10.8461L0.55068 11.1444L0.899216 9.7465L0.900213 9.20373V9.18359L0.893036 9.19728L0 10.8461Z" fill="#D1DBE2"/>
<path d="M5.71 2.33067L5.54786 2.24275L5.38526 2.15464L4.86142 1.87109L3.92188 3.60606L4.04002 3.6355L4.23765 3.68454L4.43514 3.73378L11.5966 5.51905L5.71 2.33067Z" fill="#D1DBE2"/>
<path d="M17.7624 18.3146L17.5651 18.2655L10.4033 16.4805L16.2903 19.6686L16.4521 19.7565L16.6147 19.8445L17.1386 20.1284L18.0781 18.3931L17.96 18.3636L17.7624 18.3146Z" fill="#D1DBE2"/>
<path d="M2.479 5.51558H2.57277L2.68248 5.51591L2.81451 5.51625H2.88635L10.1785 5.53392L4.16121 4.03393L3.96359 3.98489L3.76576 3.93565L3.74543 3.9306L3.56568 3.88568L3.38593 3.84089L2.77823 3.68945L2.32324 5.51518H2.33082L2.479 5.51558Z" fill="#D1DBE2"/>
<path d="M19.5208 16.4831H19.4269L19.3172 16.4828L19.1851 16.4824H19.1132L11.8213 16.4648L17.8384 17.9644L18.0361 18.0138L18.234 18.0628L18.2543 18.0681L18.4338 18.1129L18.6138 18.1578L19.2215 18.3091L19.6764 16.4834H19.6686L19.5208 16.4831Z" fill="#D1DBE2"/>
<path d="M21.1052 10.4625L21.1045 10.6661V10.7523L21.1234 10.6765L21.1683 10.4967L21.2131 10.3169L21.6904 8.40254L21.1101 8.25781L21.1059 10.2587L21.1052 10.4625Z" fill="#D1DBE2"/>
<path d="M0.831742 11.5019L0.786888 11.6813L0.30957 13.596L0.889555 13.7404L0.894073 11.7395L0.894804 11.5359L0.895137 11.3323L0.895535 11.2461L0.87653 11.3218L0.831742 11.5019Z" fill="#D1DBE2"/>
<path d="M13.2449 5.89947L13.1303 5.89914L13.0556 5.8988H12.9775L12.6771 5.89807L12.3814 5.89734L12.2987 5.89701L11.6322 5.89541L2.69255 5.87382L2.48947 5.87349H2.48821L2.28447 5.87315H2.24713H2.23344L2.04877 5.87282H2.00504L1.86404 5.87249L1.26657 5.87109L1.26485 6.68811L1.26412 6.95584L1.26339 7.22317L1.26186 7.76176L1.26079 8.14V8.29317L1.26046 8.5185L1.25907 9.04207V9.04539L1.2584 9.28721L1.25767 9.52902L1.25694 9.79097L1.25262 11.5252L1.25222 11.7288L1.25189 11.9327L1.24717 13.8285L1.24684 14.0135L1.24651 14.1981L1.24219 16.08L8.48668 16.0972L8.75407 16.098L8.86883 16.0983H8.94346L9.02161 16.0987L9.3221 16.0994L9.61767 16.1001L9.7002 16.1004L10.3669 16.1022L19.3066 16.1236L19.5098 16.1239H19.5106L19.7145 16.1243H19.7516H19.7653L19.95 16.1246H19.9938L20.135 16.125L20.7321 16.1263L20.7342 15.3095L20.7349 15.0418L20.7357 14.7741L20.737 14.2358L20.7381 13.8574L20.7385 13.7042L20.7388 13.4789L20.7402 12.9554V12.9518L20.741 12.71L20.7416 12.4682L20.7424 12.2065L20.7469 10.4722V10.2686L20.7476 10.0649L20.7521 8.1687L20.7525 7.98404L20.7529 7.79917L20.7574 5.91774L13.5128 5.9006L13.2449 5.89947ZM4.04469 6.97597C4.90178 6.97597 5.59685 7.67105 5.59685 8.52834C5.59685 9.38549 4.90178 10.0806 4.04469 10.0806C3.18741 10.0806 2.49233 9.38549 2.49233 8.52834C2.49193 7.67105 3.18701 6.97597 4.04469 6.97597ZM15.3146 14.7828H7.57351H7.30644H7.26737H7.03937H6.89085H6.51375H5.07369H4.33169H3.59003H2.49193V14.5091V14.3241V14.1395V13.4516H4.05499H4.43223H4.80861H5.57393H5.8406H6.10766H15.3142V14.7828H15.3146ZM15.3146 12.4664H5.02431H4.75731H4.49064H2.99085H2.61467H2.492V12.4002V12.1963V11.1352H3.02513H3.2918H3.55887H15.3146V12.4664Z" fill="#D1DBE2"/>
</svg>
