<svg width="18" height="21" viewBox="0 0 18 21" fill="none" xmlns="http://www.w3.org/2000/svg">
<path d="M11.1152 21H3.28125C1.47192 21 0 19.5281 0 17.7188V6.60352C0 4.79418 1.47192 3.32227 3.28125 3.32227H11.1152C12.9246 3.32227 14.3965 4.79418 14.3965 6.60352V17.7188C14.3965 19.5281 12.9246 21 11.1152 21ZM3.28125 4.96289C2.37666 4.96289 1.64062 5.69893 1.64062 6.60352V17.7188C1.64062 18.6233 2.37666 19.3594 3.28125 19.3594H11.1152C12.0198 19.3594 12.7559 18.6233 12.7559 17.7188V6.60352C12.7559 5.69893 12.0198 4.96289 11.1152 4.96289H3.28125ZM17.6777 15.668V3.28125C17.6777 1.47192 16.2058 0 14.3965 0H5.29102C4.83792 0 4.4707 0.367218 4.4707 0.820312C4.4707 1.27341 4.83792 1.64062 5.29102 1.64062H14.3965C15.3011 1.64062 16.0371 2.37666 16.0371 3.28125V15.668C16.0371 16.1211 16.4043 16.4883 16.8574 16.4883C17.3105 16.4883 17.6777 16.1211 17.6777 15.668Z" fill="#2746FF"/>
</svg>
