<svg width="26" height="26" viewBox="0 0 26 26" fill="none" xmlns="http://www.w3.org/2000/svg">
<path d="M22.3679 18.9922C22.0543 18.9922 21.8001 19.2195 21.8001 19.5V24.4766C21.8001 24.7566 21.5454 24.9844 21.2324 24.9844H1.70325C1.39019 24.9844 1.1355 24.7566 1.1355 24.4766V15.2851C1.1355 15.0047 0.881317 14.7773 0.56775 14.7773C0.254182 14.7773 0 15.0047 0 15.2851V24.4766C0 25.3166 0.764077 26 1.70325 26H21.2324C22.1715 26 22.9356 25.3166 22.9356 24.4766V19.5C22.9356 19.2195 22.6814 18.9922 22.3679 18.9922Z" fill="#2746FF"/>
<path d="M24.5966 9.50363C24.1089 9.06742 23.5412 8.74602 22.9357 8.53716V5.48383C22.9352 5.48378 22.9347 5.48373 22.9343 5.48373C22.9342 5.35164 22.8779 5.22185 22.7694 5.12475L17.2061 0.148789C17.0975 0.0516954 16.9523 0.0013711 16.8047 0.00132032C16.8047 0.000863283 16.8046 0.000457032 16.8046 0H1.70325C0.764077 0 0 0.683415 0 1.52344V10.9857C0 11.2661 0.254182 11.4935 0.56775 11.4935C0.881317 11.4935 1.1355 11.2661 1.1355 10.9857V1.52339C1.1355 1.24338 1.39019 1.01558 1.70325 1.01558H16.2369V4.4682C16.2369 5.30823 17.001 5.99164 17.9401 5.99164H21.8001V8.28259C20.3806 8.12471 18.8969 8.53091 17.8093 9.50363L9.71771 16.741C9.49601 16.9393 9.49601 17.2608 9.71771 17.4592C9.93942 17.6575 10.2989 17.6575 10.5207 17.4592L18.6123 10.2218C20.0408 8.94412 22.3652 8.94407 23.7937 10.2218C25.2222 11.4995 25.2222 13.5785 23.7937 14.8561L16.2048 21.6439C15.314 22.4406 13.8646 22.4406 12.9739 21.6439C12.5424 21.2579 12.3047 20.7448 12.3047 20.1989C12.3047 19.6531 12.5424 19.1399 12.9739 18.754L20.5997 11.9333C20.7677 11.7829 20.9912 11.7001 21.2288 11.7001C21.4665 11.7001 21.69 11.7829 21.858 11.9333C22.0261 12.0836 22.1186 12.2834 22.1186 12.496C22.1186 12.7086 22.0261 12.9085 21.858 13.0588L14.9852 19.206C14.7635 19.4043 14.7635 19.7258 14.9852 19.9242C15.2069 20.1224 15.5664 20.1224 15.7881 19.9242L22.6609 13.7769C23.0434 13.4348 23.2541 12.9799 23.2541 12.496C23.2541 12.0122 23.0434 11.5572 22.6609 11.2151C22.2784 10.8729 21.7698 10.6845 21.2288 10.6845C20.6879 10.6845 20.1793 10.8729 19.7967 11.2151L12.171 18.0358C10.8375 19.2286 10.8375 21.1693 12.171 22.362C12.8378 22.9585 13.7134 23.2566 14.5893 23.2565C15.465 23.2565 16.3411 22.9583 17.0077 22.362L24.5966 15.5743C26.4678 13.9006 26.4678 11.1773 24.5966 9.50363ZM17.9401 4.97601C17.6271 4.97601 17.3724 4.74821 17.3724 4.4682V1.73383L20.9972 4.97601H17.9401Z" fill="#2746FF"/>
<path d="M0.969319 12.804C0.863717 12.7095 0.717238 12.6552 0.56792 12.6552C0.418034 12.6552 0.272122 12.7095 0.165953 12.804C0.0603518 12.8984 0.00017034 13.0294 0.00017034 13.163C0.00017034 13.2965 0.0603518 13.4276 0.165953 13.522C0.272122 13.617 0.418034 13.6708 0.56792 13.6708C0.717238 13.6708 0.863717 13.617 0.969319 13.522C1.07492 13.4276 1.13567 13.2965 1.13567 13.163C1.13567 13.0294 1.07492 12.8984 0.969319 12.804Z" fill="#2746FF"/>
<path d="M8.85263 18.5026L8.84139 18.4716C8.74459 18.2048 8.42432 18.0587 8.12608 18.1453C7.82785 18.2319 7.6645 18.5183 7.76131 18.7851L7.77255 18.8161C7.85044 19.0308 8.07306 19.1673 8.31248 19.1673C8.37056 19.1673 8.42966 19.1592 8.48785 19.1424C8.78609 19.0558 8.94944 18.7693 8.85263 18.5026Z" fill="#2746FF"/>
</svg>
