<svg width="20" height="20" viewBox="0 0 20 20" fill="none" xmlns="http://www.w3.org/2000/svg">
<path d="M12.9167 15H12.0834C11.8532 15 11.6667 15.1866 11.6667 15.4167V18.3334H1.66668V1.66668H11.6667V4.58336C11.6667 4.81348 11.8532 5.00004 12.0834 5.00004H12.9167C13.1468 5.00004 13.3334 4.81348 13.3334 4.58336V1.66668C13.3333 0.746211 12.5871 0 11.6667 0H1.66668C0.746211 0 0 0.746211 0 1.66668V18.3334C0 19.2538 0.746211 20 1.66668 20H11.6667C12.5871 20 13.3334 19.2538 13.3334 18.3333V15.4166C13.3333 15.1866 13.1468 15 12.9167 15Z" fill="white"/>
<path d="M19.8649 9.69275L14.8649 5.10943C14.7429 4.99834 14.5659 4.96783 14.4157 5.03537C14.2643 5.10169 14.1667 5.25142 14.1667 5.41662V6.24998C14.1667 6.36798 14.2167 6.48068 14.3046 6.55962L17.2011 9.16666H5.41668C5.18637 9.16666 5 9.35302 5 9.58334V10.4167C5 10.647 5.18637 10.8333 5.41668 10.8333H17.2011L14.3046 13.4404C14.2167 13.5193 14.1667 13.632 14.1667 13.75V14.5833C14.1667 14.7485 14.2643 14.8983 14.4157 14.9646C14.4694 14.9886 14.5268 15 14.5834 15C14.6855 15 14.7864 14.9621 14.8649 14.8905L19.8649 10.3072C19.9512 10.2283 20 10.1168 20 9.99998C20 9.88318 19.9512 9.77169 19.8649 9.69275Z" fill="white"/>
</svg>
