<svg xmlns="http://www.w3.org/2000/svg" width="24" height="24" viewBox="0 0 24 24"><g><g><g><path fill="#879aaa" d="M17.377 0A6.63 6.63 0 0 1 24 6.623v10.754A6.63 6.63 0 0 1 17.377 24H6.623A6.63 6.63 0 0 1 0 17.377V6.623A6.63 6.63 0 0 1 6.623 0zm4.494 17.377V6.623a4.499 4.499 0 0 0-4.494-4.494H6.623a4.499 4.499 0 0 0-4.494 4.494v10.754a4.499 4.499 0 0 0 4.494 4.494h10.754a4.499 4.499 0 0 0 4.494-4.494z"/></g><g><path fill="#879aaa" d="M18.188 12.004a6.19 6.19 0 0 1-6.184 6.184 6.19 6.19 0 0 1-6.184-6.184 6.191 6.191 0 0 1 6.184-6.184 6.191 6.191 0 0 1 6.184 6.184zm-2.13 0a4.06 4.06 0 0 0-4.054-4.055 4.06 4.06 0 0 0-4.055 4.055 4.06 4.06 0 0 0 4.055 4.054 4.06 4.06 0 0 0 4.055-4.054z"/></g><g><path fill="#879aaa" d="M18.442 4.01c-.41 0-.814.166-1.103.457-.292.29-.459.693-.459 1.105 0 .41.168.813.459 1.104.29.29.692.457 1.103.457.411 0 .813-.167 1.104-.457.291-.291.457-.694.457-1.104 0-.412-.166-.815-.457-1.105a1.568 1.568 0 0 0-1.104-.457z"/></g></g></g></svg>