<svg width="19" height="14" viewBox="0 0 19 14" fill="none" xmlns="http://www.w3.org/2000/svg">
<path  d="M15.4375 13.7128H12.3203C12.0754 13.7128 11.875 13.52 11.875 13.2843V11.8559C11.875 11.6202 12.0754 11.4273 12.3203 11.4273H15.4375C16.0943 11.4273 16.625 10.9167 16.625 10.2846V3.4282C16.625 2.79613 16.0943 2.28547 15.4375 2.28547H12.3203C12.0754 2.28547 11.875 2.09263 11.875 1.85694V0.428525C11.875 0.192836 12.0754 0 12.3203 0H15.4375C17.4043 0 19 1.53555 19 3.4282V10.2846C19 12.1773 17.4043 13.7128 15.4375 13.7128ZM13.6934 6.53501L7.45898 0.535656C6.90234 0 5.9375 0.374959 5.9375 1.14273V4.57093H0.890625C0.39707 4.57093 0 4.95303 0 5.42798V8.85618C0 9.33113 0.39707 9.71323 0.890625 9.71323H5.9375V13.1414C5.9375 13.9092 6.90234 14.2842 7.45898 13.7485L13.6934 7.74916C14.0385 7.41348 14.0385 6.87068 13.6934 6.53501Z" fill="#414D55"/>
</svg>
