<svg width="12" height="16" viewBox="0 0 12 16" fill="none" xmlns="http://www.w3.org/2000/svg">
<path d="M6 10.1053C7.42286 10.1053 8.56286 8.97684 8.56286 7.57895L8.57143 2.52632C8.57143 1.12842 7.42286 0 6 0C4.57714 0 3.42857 1.12842 3.42857 2.52632V7.57895C3.42857 8.97684 4.57714 10.1053 6 10.1053ZM10.5429 7.57895C10.5429 10.1053 8.36571 11.8737 6 11.8737C3.63429 11.8737 1.45714 10.1053 1.45714 7.57895H0C0 10.4505 2.33143 12.8253 5.14286 13.2379V16H6.85714V13.2379C9.66857 12.8337 12 10.4589 12 7.57895H10.5429Z" fill="white"/>
</svg>
