<svg xmlns="http://www.w3.org/2000/svg" width="22" height="22" viewBox="0 0 22 22"><g><g/><g><path fill="#d1dbe2" d="M7.8 8.27h6.25v2.002H7.8z"/></g><g><path fill="#d1dbe2" d="M15.214 6.974l1.957-.838-6.175-2.646L4.82 6.136l1.957.838z"/></g><g><path fill="#d1dbe2" d="M22 18.346V15.08H0v3.266h8.22v.773c0 .877-.714 1.59-1.59 1.59H4.64v1.289h12.72v-1.29h-1.99c-.876 0-1.59-.712-1.59-1.589v-.773z"/></g><g><path fill="#d1dbe2" d="M0 13.793V0h22v13.793zm2.668-7.175l3.846 1.648v3.293h8.828V8.327l1.529-.654v2.517h1.289V7.12l1.172-.502v-.957L11 2.091l-8.332 3.57z"/></g></g></svg>