<svg xmlns="http://www.w3.org/2000/svg" width="16" height="22" viewBox="0 0 16 22"><g><g><g/><g><g><g><path fill="#d1dbe2" d="M9.823 16.5H5.697a.66.66 0 0 0-.48.206.66.66 0 0 0-.207.482v4.125a.66.66 0 0 0 .206.481.66.66 0 0 0 .481.206h4.126a.659.659 0 0 0 .48-.206.658.658 0 0 0 .207-.481v-4.125a.658.658 0 0 0-.206-.482.658.658 0 0 0-.481-.206z"/></g><g><path fill="#d1dbe2" d="M15.239 4.15a7.127 7.127 0 0 0-1.823-2.19A9.316 9.316 0 0 0 10.907.532 7.703 7.703 0 0 0 8.14 0C4.657 0 1.998 1.524.165 4.572a.678.678 0 0 0 .172.91l2.819 2.15a.823.823 0 0 0 .43.137c.206 0 .383-.092.532-.275.825-1.032 1.438-1.69 1.84-1.977.492-.332 1.11-.498 1.855-.498.7 0 1.315.183 1.848.55.533.366.8.79.8 1.272 0 .538-.144.973-.43 1.306-.287.332-.768.653-1.444.962-.894.401-1.714 1.023-2.458 1.865-.745.842-1.117 1.739-1.117 2.69v.773c0 .218.06.433.18.645.12.212.266.318.438.318h4.126c.183 0 .343-.089.48-.267a.9.9 0 0 0 .207-.558c0-.286.158-.67.472-1.151a3.37 3.37 0 0 1 1.178-1.118c.447-.252.796-.455 1.048-.61.253-.154.582-.404.989-.748.407-.344.722-.685.945-1.022.224-.338.424-.777.602-1.315a5.498 5.498 0 0 0 .266-1.736 5.63 5.63 0 0 0-.704-2.724z"/></g></g></g></g></g></svg>