<svg xmlns="http://www.w3.org/2000/svg" width="22" height="23" viewBox="0 0 22 23"><g><g><g/><g><g><g><path fill="#d1dbe2" d="M1.38 12.2v8.625c0 .793.617 1.438 1.375 1.438H9.63V12.2z"/></g></g></g><g><g><g><path fill="#d1dbe2" d="M20.625 6.452c.759 0 1.375.646 1.375 1.438v2.156c0 .397-.308.719-.688.719h-8.937V7.89h-2.75v2.875H.687c-.379 0-.687-.322-.687-.719V7.89c0-.792.617-1.438 1.375-1.438h4.35a5.493 5.493 0 0 1-.768-.642C3.85 4.644 3.85 2.746 4.958 1.58 6.035.449 7.913.449 8.991 1.58c.596.626 2.177 3.172 1.96 4.872h.098c-.218-1.7 1.363-4.246 1.96-4.871 1.077-1.133 2.955-1.136 4.033 0 1.11 1.165 1.11 3.063 0 4.229-.187.198-.455.42-.768.642zM8.016 2.594a1.428 1.428 0 0 0-1.04-.454 1.43 1.43 0 0 0-1.043.454 1.62 1.62 0 0 0 0 2.202c.593.624 2.406 1.656 3.356 1.656.197 0 .255-.047.255-.047.32-.347-.601-2.836-1.528-3.81zm8.05 2.202a1.616 1.616 0 0 0 0-2.202 1.453 1.453 0 0 0-2.082 0c-.927.975-1.848 3.464-1.528 3.81 0 .002.058.048.253.048.952 0 2.765-1.032 3.358-1.656z"/></g></g></g><g><g><g><path fill="#d1dbe2" d="M12.38 12.2v10.063h6.875c.759 0 1.375-.645 1.375-1.438V12.2z"/></g></g></g></g></g></svg>