<svg xmlns="http://www.w3.org/2000/svg" width="22" height="24" viewBox="0 0 22 24"><g><g><path fill="#2746ff" d="M19.556 2.4C20.9 2.4 22 3.48 22 4.8v16.8c0 1.32-1.1 2.4-2.444 2.4H2.444C1.1 24 0 22.92 0 21.6V4.8c0-1.32 1.1-2.4 2.444-2.4h5.11a3.675 3.675 0 0 1 6.893 0zm-7.334 1.2c0-.66-.55-1.2-1.222-1.2-.672 0-1.222.54-1.222 1.2 0 .66.55 1.2 1.222 1.2.672 0 1.222-.54 1.222-1.2zm-4.889 7.2c0 1.992 1.638 3.6 3.667 3.6s3.667-1.608 3.667-3.6S13.029 7.2 11 7.2s-3.667 1.608-3.667 3.6zM3.667 21.6h14.666v-1.68c0-2.4-4.888-3.72-7.333-3.72-2.444 0-7.333 1.32-7.333 3.72z"/></g></g></svg>