<svg xmlns="http://www.w3.org/2000/svg" width="22" height="22" viewBox="0 0 22 22"><g><g><g/><g><g><g><path fill="#d1dbe2" d="M18.977 15.13c0-.512.16-1.007.453-1.42H.42a2.709 2.709 0 0 0 .001 2.841h19.01a2.452 2.452 0 0 1-.454-1.42z"/></g></g></g><g><g><g><path fill="#d1dbe2" d="M16.712 4.99c.36 0 .652.292.652.652v3.78c0 1.16-.462 2.213-1.212 2.986H8.055a4.31 4.31 0 0 1-.818-1.187h-.59A2.59 2.59 0 0 1 4.06 8.634a2.59 2.59 0 0 1 2.587-2.587h.195v-.405c0-.36.292-.652.652-.652zM6.87 9.916a4.309 4.309 0 0 1-.028-.494V7.351h-.195a1.284 1.284 0 0 0 0 2.565z"/></g></g></g><g><g><g><path fill="#d1dbe2" d="M21.578 17.85H2.568a2.451 2.451 0 0 1-.172 3.058.652.652 0 0 0 .486 1.088h16.372a2.728 2.728 0 0 0 2.725-2.725c0-.52-.147-1.007-.401-1.421z"/></g></g></g><g><g><g><path fill="#d1dbe2" d="M13.002 0a.652.652 0 0 0-.652.652v2.87a.652.652 0 0 0 1.304 0V.652A.652.652 0 0 0 13.002 0z"/></g></g></g><g><g><g><path fill="#d1dbe2" d="M11.212 1.43a.652.652 0 0 0-.652.652v1.435a.652.652 0 0 0 1.304 0V2.082a.652.652 0 0 0-.652-.652z"/></g></g></g></g></g></svg>