<svg xmlns="http://www.w3.org/2000/svg" width="22" height="22" viewBox="0 0 22 22"><g><g><g/><g><path fill="#d1dbe2" d="M8.647 9.429a1.179 1.179 0 1 1-2.357 0 1.179 1.179 0 0 1 2.357 0z"/></g><g><path fill="#d1dbe2" d="M9.031 12.57H5.89c-.651 0-1.179.528-1.179 1.179v1.964h5.5v-1.964c0-.651-.528-1.179-1.179-1.179z"/></g><g><path fill="#d1dbe2" d="M22 19.64h-8.53l-1.174.786H9.691l-1.166-.786H0v1.179c0 .65.528 1.178 1.179 1.178H20.82c.651 0 1.179-.528 1.179-1.178z"/></g><g><path fill="#d1dbe2" d="M.79 18.86h7.979l1.166.786h2.13l1.172-.786h7.982V7.04c-.247.21-.51.399-.786.566v10.468H1.576V5.896h9.212a3.969 3.969 0 0 1-.364-.786H1.969C1.318 5.11.79 5.638.79 6.289z"/></g><g><path fill="#d1dbe2" d="M11.229 10.216a.393.393 0 0 0 .524.497l4.715-2.069h.035a7.888 7.888 0 0 0 3.143-.638v9.281H2.36V6.68h9.031c.271.282.571.534.895.752zM5.503 9.43a1.964 1.964 0 1 0 3.929 0 1.964 1.964 0 0 0-3.93 0zm5.5 4.321a1.967 1.967 0 0 0-1.964-1.964H5.896a1.967 1.967 0 0 0-1.965 1.964v2.75h7.072z"/></g><g><path fill="#d1dbe2" d="M22 3.929C22 1.762 19.533 0 16.5 0S11 1.762 11 3.929c0 1.157.717 2.253 1.967 3.006a.393.393 0 0 1 .164.476l-.838 2.205 3.932-1.726a.4.4 0 0 1 .157-.033h.118c3.033 0 5.5-1.762 5.5-3.928z"/></g></g></g></svg>