<svg xmlns="http://www.w3.org/2000/svg" width="22" height="22" viewBox="0 0 22 22"><g><g><g/><g><g><g><path fill="#d1dbe2" d="M12.583 5.542L7.221.67 5.96 2.058l6.431 3.484z"/></g><g><path fill="#d1dbe2" d="M.79 8.625l.107-.197L.9 7.62l-.549.604z"/></g><g><path fill="#d1dbe2" d="M21.102 13.567l-.002.808.55-.604-.441-.401z"/></g><g><path fill="#d1dbe2" d="M9.42 16.46l5.362 4.872 1.261-1.388-6.431-3.484z"/></g><g><path fill="#d1dbe2" d="M21.101 12.248l-.001.543v.02l.007-.014.893-1.649-.55-.298z"/></g><g><path fill="#d1dbe2" d="M0 10.843l.55.298.35-1.398V9.18l-.007.014z"/></g><g><path fill="#d1dbe2" d="M5.708 2.33l-.162-.088-.163-.088-.523-.284-.94 1.735.118.03.198.048.197.05 7.162 1.785z"/></g><g><path fill="#d1dbe2" d="M17.76 18.314l-.198-.049L10.4 16.48l5.887 3.188.162.088.162.088.524.284.94-1.735-.118-.03z"/></g><g><path fill="#d1dbe2" d="M2.476 5.516H2.883l7.292.018-6.017-1.5-.198-.049-.197-.049-.02-.005-.18-.045-.18-.045-.608-.151-.455 1.826h.008z"/></g><g><path fill="#d1dbe2" d="M19.52 16.488H19.111l-7.292-.018 6.017 1.5.198.049.198.049.02.005.18.045.18.045.607.151.455-1.825h-.008z"/></g><g><path fill="#d1dbe2" d="M21.1 10.465V10.755l.019-.076.045-.18.045-.18.477-1.914-.58-.145-.005 2z"/></g><g><path fill="#d1dbe2" d="M.832 11.506l-.045.18L.31 13.6l.58.144.004-2 .001-.204v-.204l.001-.086-.019.076z"/></g><g><path fill="#d1dbe2" d="M13.51 5.9l7.245.017-.004 1.881v.185l-.001.185-.005 1.896V10.47l-.005 1.734v.262l-.001.242v.245l-.002.524v.225l-.001.153-.001.379-.001.538-.001.268-.001.267-.002.817-.597-.001h-.42l-.205-.001h-.204l-8.94-.022-.666-.002H9.32l-.3-.001h-.153l-.115-.001h-.268l-7.244-.018.004-1.882v-.185l.001-.185.005-1.895v-.408l.005-1.734v-.262l.001-.242v-.245l.002-.524V8.14l.002-.378.001-.539v-.267l.002-.268.001-.817.598.001h.185l.184.001h.459l8.94.022.666.002h.083l.296.001h.378l.075.001h.115zM2.49 8.526a1.552 1.552 0 1 0 3.105 0 1.552 1.552 0 0 0-3.105 0zm12.822 6.255V13.45H2.49v1.332zm0-2.317v-1.33H2.49v1.33z"/></g></g></g></g></g></svg>