<svg xmlns="http://www.w3.org/2000/svg" width="22" height="17" viewBox="0 0 22 17"><g><g><path fill="#d1dbe2" d="M18.639 16.089a.912.912 0 0 1-.917.911H13.29a.458.458 0 0 1-.459-.456v-4.253a.458.458 0 0 0-.458-.456h-2.75a.458.458 0 0 0-.459.456v4.253c0 .25-.206.456-.458.456H4.276a.912.912 0 0 1-.917-.911v-5.442c0-.137.061-.266.168-.354l7.182-5.878a.468.468 0 0 1 .584 0l7.181 5.878a.464.464 0 0 1 .165.354zm3.193-7.755c.195.16.225.444.065.642l-.974 1.177a.462.462 0 0 1-.646.06l-8.984-7.355a.468.468 0 0 0-.584 0l-8.985 7.356a.461.461 0 0 1-.645-.061L.105 8.976a.455.455 0 0 1 .06-.642L9.835.416a1.84 1.84 0 0 1 2.33 0l3.419 2.799V.458c0-.251.206-.456.458-.456h2.14c.251 0 .457.205.457.456v5.26z"/></g></g></svg>