<svg xmlns="http://www.w3.org/2000/svg" width="22" height="20" viewBox="0 0 22 20"><g><g><g><g><path fill="#d1dbe2" d="M21.156 3.064L7.682.213a1.063 1.063 0 0 0-1.256.817L6.17 2.675l15.547 3.29.256-1.645a1.062 1.062 0 0 0-.817-1.256z"/></g><g><path fill="#d1dbe2" d="M15.725 7.155L21.137 8.3l-.95 4.491c-.121.57-.686.938-1.257.817l-1.502-.317.401 1.444a1.073 1.073 0 0 1-.744 1.316L3.69 19.77a1.073 1.073 0 0 1-1.316-.745L.039 10.61a1.072 1.072 0 0 1 .744-1.316l4.144-1.15.663-3.133 6.03 1.276 2.558-.71a1.073 1.073 0 0 1 1.316.745zm1.316 3.442a.437.437 0 0 0 .336.517l1.566.331a.437.437 0 0 0 .516-.336l.332-1.565a.437.437 0 0 0-.337-.517l-1.565-.331a.437.437 0 0 0-.517.336zm-16.025-.464a.2.2 0 0 0-.137.244l.456 1.645L15.11 8.199l-.346-1.247-.11-.398a.202.202 0 0 0-.244-.138l-.94.262-8.747 2.427zm15.451 2.954l-.84-3.027-13.775 3.823 1.362 4.908a.202.202 0 0 0 .243.137l13.395-3.717c.063-.017.099-.06.118-.093a.194.194 0 0 0 .019-.15z"/></g><g><path fill="#d1dbe2" d="M5.62 15.3a.437.437 0 0 0-.537-.304l-1.564.434a.437.437 0 0 0-.303.537l.434 1.564a.437.437 0 0 0 .537.303L5.75 17.4a.437.437 0 0 0 .303-.537z"/></g></g></g></g></svg>