<svg width="20" height="22" viewBox="0 0 20 22" fill="none" xmlns="http://www.w3.org/2000/svg">
<path d="M16.2857 9.625V10.125H16.7857H17.8571C18.7822 10.125 19.5 10.8428 19.5 11.6875V19.9375C19.5 20.7822 18.7822 21.5 17.8571 21.5H2.14286C1.21778 21.5 0.5 20.7822 0.5 19.9375V11.6875C0.5 10.8428 1.21778 10.125 2.14286 10.125H3.21429H3.71429V9.625V6.53125C3.71429 3.22445 6.51689 0.5 10 0.5C13.4831 0.5 16.2857 3.22445 16.2857 6.53125V9.625ZM13.2143 10.125H13.7143V9.625V6.53125C13.7143 4.53141 12.0303 2.9375 10 2.9375C7.96972 2.9375 6.28571 4.53141 6.28571 6.53125V9.625V10.125H6.78571H13.2143Z" fill="white" stroke="white"/>
</svg>
