<svg width="15" height="17" viewBox="0 0 15 17" fill="none" xmlns="http://www.w3.org/2000/svg">
<path  d="M15 2.42858V3.94642C15 5.28404 11.6406 6.375 7.5 6.375C3.35936 6.375 0 5.28404 0 3.94642V2.42858C0 1.09096 3.35936 0 7.5 0C11.6406 0 15 1.09096 15 2.42858ZM15 5.84375V9.25892C15 10.5965 11.6406 11.6875 7.5 11.6875C3.35936 11.6875 0 10.5965 0 9.25892V5.84375C1.61133 6.9442 4.56054 7.45649 7.5 7.45649C10.4395 7.45649 13.3886 6.9442 15 5.84375ZM15 11.1562V14.5714C15 15.909 11.6406 17 7.5 17C3.35936 17 0 15.909 0 14.5714V11.1562C1.61133 12.2567 4.56054 12.769 7.5 12.769C10.4395 12.769 13.3886 12.2567 15 11.1562Z" fill="#414D55"/>
</svg>
