<svg width="38" height="30" viewBox="0 0 38 30" fill="none" xmlns="http://www.w3.org/2000/svg">
<path fill-rule="evenodd" clip-rule="evenodd" d="M34.1449 2.77778C35.0877 3.04988 35.7971 4.23153 35.7971 5.64505V24.355C35.7971 25.7699 35.0869 26.9502 34.1449 27.2222V2.77778ZM38 8.40985V21.0346C38 22.4431 37.5265 23.6181 36.8986 23.8889V5.55556C37.5271 5.82643 38 7.00273 38 8.40985ZM0 2.13348C0 0.95519 0.944476 0 2.11097 0H30.9325C32.0984 0 33.0435 0.955766 33.0435 2.13348V27.8665C33.0435 29.0448 32.099 30 30.9325 30H2.11097C0.945115 30 0 29.0442 0 27.8665V2.13348ZM13.9547 20.3342C12.9392 20.9074 12.1159 20.4195 12.1159 19.2391V10.7617C12.1159 9.5837 12.9414 9.09469 13.9547 9.66665L21.5653 13.9625C22.5808 14.5357 22.5785 15.4663 21.5653 16.0383L13.9547 20.3342Z" fill="#2746FF"/>
</svg>
