<svg width="17" height="17" viewBox="0 0 17 17" fill="none" xmlns="http://www.w3.org/2000/svg">
<g clip-path="url(#clip0)">
<path d="M14.346 0C14.0159 0 13.7482 0.271827 13.7482 0.607154V2.82503C10.6708 -0.201211 5.76069 -0.120456 2.78125 3.00532C1.37711 4.47843 0.593783 6.4496 0.597671 8.49998C0.597671 8.83531 0.865294 9.10714 1.19544 9.10714C1.52558 9.10714 1.79317 8.83531 1.79317 8.49998C1.7939 4.81152 4.73832 1.822 8.36977 1.82274C10.2141 1.8231 11.9734 2.61019 13.2187 3.99195L10.5706 4.88868C10.257 4.99466 10.0873 5.33877 10.1917 5.65731C10.296 5.97585 10.6348 6.14821 10.9484 6.04223L14.5349 4.82796C14.7797 4.74514 14.9446 4.51205 14.9438 4.24997V0.607119C14.9438 0.271827 14.6761 0 14.346 0Z" fill="#2662F0"/>
<path d="M15.5416 7.89295C15.2115 7.89295 14.9438 8.16478 14.9438 8.50011C14.9431 12.1886 11.9987 15.1781 8.36723 15.1773C6.52294 15.177 4.76362 14.3899 3.51835 13.0081L6.16639 12.1114C6.48 12.0054 6.64969 11.6613 6.54536 11.3428C6.44102 11.0242 6.10222 10.8519 5.78861 10.9579L2.20209 12.1721C1.95727 12.2549 1.79241 12.488 1.79322 12.7501V16.393C1.79322 16.7283 2.06084 17.0001 2.39098 17.0001C2.72112 17.0001 2.98875 16.7283 2.98875 16.393V14.1751C6.06622 17.2013 10.9763 17.1206 13.9557 13.9948C15.3599 12.5217 16.1432 10.5505 16.1393 8.50011C16.1394 8.16478 15.8717 7.89295 15.5416 7.89295Z" fill="#2662F0"/>
</g>
<defs>
<clipPath id="clip0">
<rect width="16.7371" height="17" fill="white"/>
</clipPath>
</defs>
</svg>
