<svg xmlns="http://www.w3.org/2000/svg" width="20" height="18" viewBox="0 0 20 18"><g><g opacity=".3"><path d="M11.086 15.417A11.292 11.292 0 0 1 .23 9.857a1.704 1.704 0 0 1 0-1.714 11.315 11.315 0 0 1 3.334-3.605l1.982 2.867A4.834 4.834 0 0 0 5.277 9c0 2.627 2.089 4.756 4.678 4.78zm8.683-5.56a11.317 11.317 0 0 1-4.693 4.411l1.44 2.082a.85.85 0 0 1-.205 1.175l-.455.322a.827.827 0 0 1-1.16-.207L3.484 1.65A.85.85 0 0 1 3.689.475l.455-.322a.827.827 0 0 1 1.16.207l1.773 2.553A11.327 11.327 0 0 1 10 2.53c4.16 0 7.811 2.248 9.77 5.612a1.704 1.704 0 0 1 0 1.714zM14.722 9c0-2.643-2.112-4.781-4.722-4.781-.623 0-1.217.122-1.761.343l.67.952a3.578 3.578 0 0 1 2.791.26c-.822 0-1.487.674-1.487 1.505 0 .831.664 1.506 1.486 1.506s1.487-.674 1.487-1.506a3.693 3.693 0 0 1-.286 3.9l.67.952A4.798 4.798 0 0 0 14.722 9zm-5.624 3.541c-1.674-.436-2.866-2.052-2.692-3.894z"/></g></g></svg>