<svg width="32" height="24" viewBox="0 0 32 24" fill="none" xmlns="http://www.w3.org/2000/svg">
<path d="M28.3906 19.5C28.7258 19.5 29 19.7812 29 20.125V21.375C29 21.7188 28.7258 22 28.3906 22H3.60938C3.27422 22 3 21.7188 3 21.375V2.625C3 2.28125 3.27422 2 3.60938 2H4.82812C5.16328 2 5.4375 2.28125 5.4375 2.625V19.5H28.3906ZM10.3125 16.375V12.625C10.3125 12.2812 10.0383 12 9.70312 12H8.48438C8.14922 12 7.875 12.2812 7.875 12.625V16.375C7.875 16.7188 8.14922 17 8.48438 17H9.70312C10.0383 17 10.3125 16.7188 10.3125 16.375ZM15.1875 16.375V5.95833C15.1875 5.61458 14.9133 5.33333 14.5781 5.33333H13.3594C13.0242 5.33333 12.75 5.61458 12.75 5.95833V16.375C12.75 16.7188 13.0242 17 13.3594 17H14.5781C14.9133 17 15.1875 16.7188 15.1875 16.375ZM20.0625 16.375V9.29167C20.0625 8.94792 19.7883 8.66667 19.4531 8.66667H18.2344C17.8992 8.66667 17.625 8.94792 17.625 9.29167V16.375C17.625 16.7188 17.8992 17 18.2344 17H19.4531C19.7883 17 20.0625 16.7188 20.0625 16.375ZM24.9375 16.375V4.29167C24.9375 3.94792 24.6633 3.66667 24.3281 3.66667H23.1094C22.7742 3.66667 22.5 3.94792 22.5 4.29167V16.375C22.5 16.7188 22.7742 17 23.1094 17H24.3281C24.6633 17 24.9375 16.7188 24.9375 16.375Z" fill="#2746FF"/>
</svg>
