<svg width="26" height="30" viewBox="0 0 26 30" fill="none" xmlns="http://www.w3.org/2000/svg">
<path d="M17.9057 18.7857L12.582 24.3753L7.25837 18.7857C3.26842 18.9673 0.0820312 22.3949 0.0820312 26.6252V27.1876C0.0820312 28.7403 1.28181 30 2.7606 30H22.4035C23.8823 30 25.082 28.7403 25.082 27.1876V26.6252C25.082 22.3949 21.8956 18.9673 17.9057 18.7857ZM0.84096 4.67702L1.1981 4.7649V8.18661C0.807478 8.43269 0.52846 8.86041 0.52846 9.37601C0.52846 9.86817 0.785156 10.2783 1.14788 10.5302L0.277344 14.1805C0.182478 14.5847 0.394531 15.0007 0.701451 15.0007H3.03404C3.34096 15.0007 3.55301 14.5847 3.45815 14.1805L2.58761 10.5302C2.95033 10.2783 3.20703 9.86817 3.20703 9.37601C3.20703 8.86041 2.92801 8.43269 2.53739 8.18661V5.10473L6.22042 6.03633C5.74051 7.04409 5.43917 8.16903 5.43917 9.37601C5.43917 13.5184 8.63672 16.8756 12.582 16.8756C16.5273 16.8756 19.7249 13.5184 19.7249 9.37601C19.7249 8.16903 19.4291 7.04409 18.9436 6.03633L24.3175 4.67702C25.3331 4.41922 25.3331 3.0892 24.3175 2.8314L13.6925 0.136224C12.9671 -0.0454079 12.2026 -0.0454079 11.4771 0.136224L0.84096 2.82555C-0.169085 3.08335 -0.169085 4.41922 0.84096 4.67702Z" fill="#EEEDEF"/>
</svg>
