<svg width="23" height="23" viewBox="0 0 23 23" fill="none" xmlns="http://www.w3.org/2000/svg">
<g clip-path="url(#clip0)">
<path d="M8.38574 16.8782V21.3229C8.38574 21.6334 8.58507 21.9085 8.88024 22.0062C8.95403 22.0302 9.02974 22.0417 9.10449 22.0417C9.32874 22.0417 9.54532 21.9362 9.68332 21.7484L12.2833 18.2103L8.38574 16.8782Z" fill="#2746FF"/>
<path d="M22.6977 0.132561C22.4773 -0.0236475 22.1878 -0.0447308 21.9483 0.0808108L0.385763 11.3412C0.130846 11.4744 -0.0196123 11.7466 0.00147101 12.0331C0.0235127 12.3206 0.214221 12.566 0.485429 12.6589L6.47981 14.7079L19.2458 3.79244L9.36726 15.694L19.4135 19.1277C19.4882 19.1526 19.5668 19.166 19.6454 19.166C19.7757 19.166 19.9051 19.1306 20.0191 19.0616C20.2012 18.9504 20.3249 18.7635 20.3565 18.5536L22.9919 0.824478C23.0312 0.556144 22.9181 0.289728 22.6977 0.132561Z" fill="#2746FF"/>
</g>
<defs>
<clipPath id="clip0">
<rect width="23" height="23" fill="white"/>
</clipPath>
</defs>
</svg>
