<svg width="22" height="20" viewBox="0 0 22 20" fill="none" xmlns="http://www.w3.org/2000/svg">
<path d="M5.63694 0C4.25283 0 3.12658 1.09889 3.12658 2.44448L3.03531 15.1186L4.4046 15.1283L4.49591 2.44943C4.49591 1.84224 5.00779 1.34831 5.63698 1.34831H19.3984V0H5.63694Z" fill="#EEEDEF"/>
<path d="M19.3983 0C17.9638 0 16.7967 1.14919 16.7967 2.56181V16.7865C16.7967 17.8148 15.9468 18.6517 14.9025 18.6517C13.8582 18.6517 13.0083 17.8148 13.0083 16.7865V15.1461C13.0083 14.7737 12.7018 14.4719 12.3236 14.4719H0.684664C0.306496 14.4719 0 14.7737 0 15.1461V16.7865C0 18.5584 1.46399 20 3.26348 20V18.6517C2.21895 18.6517 1.36929 17.8148 1.36929 16.7865V15.8202H11.639V16.7865C11.639 18.5584 13.103 20 14.9025 20C16.702 20 18.1659 18.5584 18.1659 16.7865V6.24717H21.3153C21.6935 6.24717 22 5.94537 22 5.573V2.56177C22 1.14919 20.8329 0 19.3983 0ZM20.6307 4.89887H18.166V2.56177C18.166 1.89254 18.7189 1.34831 19.3983 1.34831C20.0777 1.34831 20.6307 1.89259 20.6307 2.56177V4.89887H20.6307Z" fill="#EEEDEF"/>
<path d="M14.7425 18.6517H3.12654V20H14.7425V18.6517Z" fill="#EEEDEF"/>
<path d="M10.1784 3.75281H6.64108C6.26291 3.75281 5.95641 4.05461 5.95641 4.42698C5.95641 4.79935 6.26291 5.10115 6.64108 5.10115H10.1784C10.5566 5.10115 10.8631 4.79935 10.8631 4.42698C10.8631 4.05461 10.5566 3.75281 10.1784 3.75281Z" fill="#EEEDEF"/>
<path d="M14.2863 6.44942H6.64108C6.26291 6.44942 5.95641 6.75122 5.95641 7.12359C5.95641 7.49596 6.26291 7.79777 6.64108 7.79777H14.2863C14.6645 7.79777 14.971 7.49596 14.971 7.12359C14.971 6.75122 14.6645 6.44942 14.2863 6.44942Z" fill="#EEEDEF"/>
<path d="M14.2863 9.14603H6.64108C6.26291 9.14603 5.95641 9.44783 5.95641 9.8202C5.95641 10.1926 6.26291 10.4944 6.64108 10.4944H14.2863C14.6645 10.4944 14.971 10.1928 14.971 9.8202C14.971 9.44783 14.6645 9.14603 14.2863 9.14603Z" fill="#EEEDEF"/>
<path d="M14.2863 11.8427H6.64108C6.26291 11.8427 5.95641 12.1445 5.95641 12.5169C5.95641 12.8892 6.26291 13.191 6.64108 13.191H14.2863C14.6645 13.191 14.971 12.8892 14.971 12.5169C14.971 12.1445 14.6645 11.8427 14.2863 11.8427Z" fill="#EEEDEF"/>
</svg>
