<svg width="14" height="14" viewBox="0 0 14 14" fill="none" xmlns="http://www.w3.org/2000/svg">
<path d="M12.8736 2.75229C13.007 2.86365 13.1571 2.91138 13.3239 2.91138C13.5073 2.91138 13.6907 2.84774 13.8241 2.70455C14.0743 2.45001 14.0576 2.03638 13.7741 1.79774L12.907 1.04998L12.0398 0.302265C11.773 0.0636286 11.3395 0.0795455 11.106 0.35C10.8725 0.620455 10.8725 1.01817 11.156 1.25681L11.5229 1.57499L10.8559 2.2909C10.0888 1.74999 9.20497 1.35227 8.23778 1.14545C8.2211 0.938636 8.13772 0.715909 7.97097 0.509091C7.80421 0.286364 7.45402 0.0318259 6.82035 7.76811e-06C6.80367 7.76811e-06 6.80367 7.76811e-06 6.78699 7.76811e-06C6.20334 7.76811e-06 5.86984 0.238652 5.6864 0.44547C5.48629 0.668197 5.40291 0.938636 5.36956 1.14545C2.30124 1.76591 1.0178e-06 4.39089 1.0178e-06 7.49317C1.0178e-06 11.0727 3.05165 14 6.80367 14C10.5557 14 13.6073 11.0886 13.6073 7.49317C13.6073 5.82271 12.9403 4.29545 11.8564 3.13409L12.5234 2.41818L12.8736 2.75229ZM6.78699 12.7114C3.7687 12.7114 1.31738 10.3727 1.31738 7.49317C1.31738 4.61362 3.7687 2.27502 6.78699 2.27502C9.80529 2.27502 12.2566 4.61362 12.2566 7.49317C12.2566 10.3727 9.80529 12.7114 6.78699 12.7114ZM7.95429 7.49317C7.95429 8.09771 7.42067 8.59092 6.80367 8.59092C6.16999 8.59092 5.66973 8.09771 5.66973 7.49317C5.66973 7.12726 5.83648 6.79319 6.17 6.60228V4.02502C6.17 3.67502 6.47016 3.38865 6.83702 3.38865C7.20389 3.38865 7.50405 3.67502 7.50405 4.02502V6.60228C7.82089 6.79319 7.95429 7.12726 7.95429 7.49317Z" fill="#2746FF"/>
</svg>
