<svg width="15" height="17" viewBox="0 0 15 17" fill="none" xmlns="http://www.w3.org/2000/svg">
<path   d="M7.35 8.5C9.66984 8.5 11.55 6.59746 11.55 4.25C11.55 1.90254 9.66984 0 7.35 0C5.03016 0 3.15 1.90254 3.15 4.25C3.15 6.59746 5.03016 8.5 7.35 8.5ZM10.29 9.5625H9.74203C9.01359 9.90117 8.20312 10.0938 7.35 10.0938C6.49687 10.0938 5.68969 9.90117 4.95797 9.5625H4.41C1.97531 9.5625 0 11.5613 0 14.025V15.4062C0 16.2861 0.705469 17 1.575 17H13.125C13.9945 17 14.7 16.2861 14.7 15.4062V14.025C14.7 11.5613 12.7247 9.5625 10.29 9.5625Z" fill="#414D55"/>
</svg>
