<svg width="21" height="17" viewBox="0 0 21 17" fill="none" xmlns="http://www.w3.org/2000/svg">
<path  d="M20.475 6.90625H18.375V4.78125C18.375 4.48906 18.1388 4.25 17.85 4.25H16.8C16.5112 4.25 16.275 4.48906 16.275 4.78125V6.90625H14.175C13.8862 6.90625 13.65 7.14531 13.65 7.4375V8.5C13.65 8.79219 13.8862 9.03125 14.175 9.03125H16.275V11.1562C16.275 11.4484 16.5112 11.6875 16.8 11.6875H17.85C18.1388 11.6875 18.375 11.4484 18.375 11.1562V9.03125H20.475C20.7637 9.03125 21 8.79219 21 8.5V7.4375C21 7.14531 20.7637 6.90625 20.475 6.90625ZM7.35 8.5C9.66984 8.5 11.55 6.59746 11.55 4.25C11.55 1.90254 9.66984 0 7.35 0C5.03016 0 3.15 1.90254 3.15 4.25C3.15 6.59746 5.03016 8.5 7.35 8.5ZM10.29 9.5625H9.74203C9.01359 9.90117 8.20312 10.0938 7.35 10.0938C6.49687 10.0938 5.68969 9.90117 4.95797 9.5625H4.41C1.97531 9.5625 0 11.5613 0 14.025V15.4062C0 16.2861 0.705469 17 1.575 17H13.125C13.9945 17 14.7 16.2861 14.7 15.4062V14.025C14.7 11.5613 12.7247 9.5625 10.29 9.5625Z" fill="#414D55"/>
</svg>
