<svg xmlns="http://www.w3.org/2000/svg" width="24" height="14" viewBox="0 0 24 14"><g><g><path fill="#879aaa" d="M23.873 12.516a1.657 1.657 0 0 0-.081-.156c-.417-.75-1.213-1.67-2.387-2.762l-.025-.025-.012-.012-.013-.012h-.013c-.533-.509-.87-.85-1.012-1.025-.258-.333-.316-.67-.175-1.013.1-.258.475-.803 1.125-1.636.341-.442.612-.796.812-1.062 1.441-1.917 2.066-3.141 1.874-3.674l-.074-.125c-.05-.075-.18-.143-.387-.206-.209-.062-.475-.073-.8-.031l-3.599.025a.467.467 0 0 0-.25.006l-.162.038-.063.03-.05.038a.556.556 0 0 0-.137.132.86.86 0 0 0-.125.218 20.41 20.41 0 0 1-1.337 2.812c-.308.516-.592.964-.85 1.343s-.475.658-.65.837c-.175.18-.333.323-.475.431-.141.109-.25.154-.324.138a9.083 9.083 0 0 1-.213-.05.83.83 0 0 1-.281-.306 1.37 1.37 0 0 1-.144-.488 5.39 5.39 0 0 1-.043-.506c-.004-.141-.003-.342.006-.6.009-.258.012-.433.012-.525 0-.316.007-.66.019-1.03l.031-.881c.009-.217.013-.446.013-.688 0-.241-.015-.43-.044-.568a1.949 1.949 0 0 0-.13-.4.674.674 0 0 0-.257-.3 1.443 1.443 0 0 0-.419-.169c-.441-.1-1.003-.154-1.687-.162-1.55-.017-2.545.083-2.986.3a1.683 1.683 0 0 0-.475.375c-.15.183-.171.283-.063.3.5.074.854.253 1.062.537l.075.15c.059.108.117.3.176.575a5.8 5.8 0 0 1 .112.912 9.726 9.726 0 0 1 0 1.562c-.042.433-.081.77-.119 1.012a2.027 2.027 0 0 1-.169.587c-.075.15-.125.242-.15.275a.215.215 0 0 1-.062.062.936.936 0 0 1-.337.063c-.117 0-.259-.058-.425-.175a2.998 2.998 0 0 1-.519-.481 6.431 6.431 0 0 1-.606-.856c-.225-.367-.458-.8-.7-1.3l-.2-.362a31.154 31.154 0 0 1-.512-1.019 19.632 19.632 0 0 1-.575-1.293.824.824 0 0 0-.3-.4L4.712.94a.855.855 0 0 0-.2-.107 1.326 1.326 0 0 0-.287-.08L.8.775c-.35 0-.587.08-.712.238l-.05.075a.404.404 0 0 0-.038.2c0 .091.025.204.075.337a41.242 41.242 0 0 0 1.63 3.399c.588 1.091 1.098 1.97 1.531 2.636a31.13 31.13 0 0 0 1.325 1.887c.45.592.748.97.893 1.137.146.167.26.292.344.375l.312.3c.2.2.494.44.881.718.388.28.817.554 1.287.825.471.27 1.019.492 1.644.662.624.171 1.233.24 1.824.207h1.437c.292-.025.512-.117.662-.275l.05-.063a.83.83 0 0 0 .094-.23c.03-.105.044-.22.044-.344a4.12 4.12 0 0 1 .08-.969c.063-.287.134-.503.213-.65a1.598 1.598 0 0 1 .482-.55.797.797 0 0 1 .1-.043c.2-.066.434-.002.705.194.271.196.525.438.763.725.237.287.522.61.856.968.333.358.625.625.874.8l.25.15c.167.1.384.192.65.275.266.083.5.104.7.062l3.199-.05c.316 0 .562-.052.737-.156.175-.104.279-.219.312-.344a.97.97 0 0 0 .007-.425 1.574 1.574 0 0 0-.088-.33z"/></g></g></svg>